<svg id="Group_341" data-name="Group 341" xmlns="http://www.w3.org/2000/svg" xmlns:xlink="http://www.w3.org/1999/xlink" width="702.926" height="660" viewBox="0 0 702.926 660">
  <defs>
    <clipPath id="clip-path">
      <rect id="Rectangle_239" data-name="Rectangle 239" width="702.926" height="660" fill="none"/>
    </clipPath>
    <clipPath id="clip-path-3">
      <rect id="Rectangle_235" data-name="Rectangle 235" width="688.413" height="643.449" fill="none"/>
    </clipPath>
    <clipPath id="clip-path-4">
      <rect id="Rectangle_236" data-name="Rectangle 236" width="92.076" height="76.857" fill="none"/>
    </clipPath>
    <clipPath id="clip-path-5">
      <rect id="Rectangle_237" data-name="Rectangle 237" width="119.989" height="294.058" fill="none"/>
    </clipPath>
  </defs>
  <g id="Group_340" data-name="Group 340" clip-path="url(#clip-path)">
    <g id="Group_339" data-name="Group 339">
      <g id="Group_338" data-name="Group 338" clip-path="url(#clip-path)">
        <g id="Group_331" data-name="Group 331" transform="translate(6.383)" opacity="0.12">
          <g id="Group_330" data-name="Group 330">
            <g id="Group_329" data-name="Group 329" clip-path="url(#clip-path-3)">
              <path id="Path_3564" data-name="Path 3564" d="M571.205,642.777l-362.218-4.915c-62.668.089-124.3-45.482-161.933-115.921S-4.181,358.323,8.114,272.956,57.745,110.863,108.375,60.294c31.2-31.165,67.7-52.931,106.041-58.761s78.5,4.882,111.385,33.661c57.265,50.113,88.279,148.921,149.631,188.358,28.574,18.367,60.683,21.617,91.022,33,59.721,22.4,116.482,86.6,124.41,171.894,5.816,62.589-8.744,109.169-38.846,158.414-24.9,40.728-44.636,60.6-80.813,55.921" transform="translate(-3.711 0)" fill="#a694ea"/>
            </g>
          </g>
        </g>
        <path id="Path_3565" data-name="Path 3565" d="M605.056,381.392c0,7.7-124.237,13.948-277.491,13.948S50.074,389.1,50.074,381.392s124.237-13.95,277.491-13.95,277.491,6.246,277.491,13.95" transform="translate(36.067 264.66)" fill="#cfc9f2"/>
        <path id="Path_3566" data-name="Path 3566" d="M164.243,437.171q3.029-15.065,7.6-30.067,4.585-15.044,10.686-29.917,6.028-14.7,13.5-29.143,7.553-14.561,16.523-28.746,8.926-14.11,19.207-27.736,1.272-1.688,2.568-3.368a1.384,1.384,0,0,0-.69-2.173c-.984-.365-1.953,1.254-2.575,2.061-7.007,9.1-13.8,17.21-19.9,26.654q-9.086,14.058-16.788,28.539-7.8,14.67-14.17,29.659-6.281,14.824-11.068,29.869-4.782,15.026-8.018,30.162-.4,1.868-.774,3.736a1.473,1.473,0,0,0,1.376,1.879c.953.115,2.35-.507,2.531-1.409" transform="translate(115.457 205.976)" fill="#5595f2"/>
        <path id="Path_3567" data-name="Path 3567" d="M200.581,297.975c2.477-5.94,4.6-11.534,8.97-16.258a20.381,20.381,0,0,1,7.552-4.423c1.135-.382,2.79-.248,3.023.927a2.221,2.221,0,0,1-.179,1.168,27.641,27.641,0,0,1-5.933,9.647c-4.062,4.017-8.892,5.47-13.432,8.939" transform="translate(144.474 199.591)" fill="#5595f2"/>
        <path id="Path_3568" data-name="Path 3568" d="M200.624,304.9c-3.059-5.844-6.076-11.178-6.933-17.717a20.846,20.846,0,0,1,1.462-8.849c.442-1.144,1.633-2.36,2.711-1.774a2.277,2.277,0,0,1,.8.907,28.343,28.343,0,0,1,3.716,10.994c.5,5.832-1.517,10.59-1.758,16.439" transform="translate(139.456 199.087)" fill="#5595f2"/>
        <path id="Path_3569" data-name="Path 3569" d="M197.248,295.263c6.15-2.381,11.791-4.781,18.385-4.9a20.861,20.861,0,0,1,8.627,2.448c1.089.569,2.162,1.889,1.459,2.893a2.27,2.27,0,0,1-.991.7,28.354,28.354,0,0,1-11.344,2.455c-5.851-.157-10.353-2.7-16.136-3.6" transform="translate(142.073 209.143)" fill="#5595f2"/>
        <path id="Path_3570" data-name="Path 3570" d="M193.506,316.272c-3.31-6.325-6.577-12.1-7.5-19.176-.37-2.825.554-6.921,1.583-9.577.48-1.239,1.767-2.555,2.935-1.922a2.467,2.467,0,0,1,.869.982,30.655,30.655,0,0,1,4.02,11.9c.544,6.31-1.641,11.462-1.9,17.791" transform="translate(133.913 205.591)" fill="#5595f2"/>
        <path id="Path_3571" data-name="Path 3571" d="M189.878,305.423c6.657-2.577,12.761-5.175,19.9-5.3,2.847-.05,6.814,1.33,9.338,2.649,1.177.616,2.34,2.044,1.579,3.133a2.478,2.478,0,0,1-1.073.752,30.665,30.665,0,0,1-12.278,2.658c-6.332-.17-11.2-2.919-17.464-3.891" transform="translate(136.765 216.171)" fill="#5595f2"/>
        <path id="Path_3572" data-name="Path 3572" d="M186.328,333.084c-4.232-8.085-8.407-15.467-9.594-24.516-.473-3.611.709-8.847,2.023-12.243.614-1.583,2.26-3.265,3.752-2.455a3.142,3.142,0,0,1,1.111,1.254,39.243,39.243,0,0,1,5.14,15.214c.7,8.068-2.1,14.653-2.432,22.746" transform="translate(127.221 211.516)" fill="#5595f2"/>
        <path id="Path_3573" data-name="Path 3573" d="M182.1,319.908c8.51-3.294,16.313-6.614,25.439-6.776,3.64-.064,8.71,1.7,11.937,3.387,1.505.788,2.992,2.613,2.018,4a3.13,3.13,0,0,1-1.371.963,39.18,39.18,0,0,1-15.7,3.4c-8.1-.215-14.325-3.731-22.327-4.973" transform="translate(131.159 225.54)" fill="#5595f2"/>
        <path id="Path_3574" data-name="Path 3574" d="M180.863,345.746c-4.9-7.7-9.687-14.7-11.634-23.616-.778-3.558-.043-8.875.981-12.371.477-1.629,1.973-3.446,3.53-2.763a3.152,3.152,0,0,1,1.213,1.156,39.184,39.184,0,0,1,6.408,14.724c1.376,7.98-.85,14.779-.5,22.869" transform="translate(121.658 221.016)" fill="#5595f2"/>
        <path id="Path_3575" data-name="Path 3575" d="M175.728,333.72c8.2-4,15.7-7.972,24.774-8.9,3.623-.373,8.823.955,12.181,2.364,1.567.657,3.2,2.35,2.35,3.819a3.144,3.144,0,0,1-1.285,1.075,39.194,39.194,0,0,1-15.35,4.712c-8.085.47-14.59-2.5-22.67-3.066" transform="translate(126.573 233.911)" fill="#5595f2"/>
        <path id="Path_3576" data-name="Path 3576" d="M174.871,355.862c-4.349-6.006-8.569-11.454-10.581-18.593-.8-2.847-.464-7.2.2-10.082.308-1.345,1.435-2.89,2.728-2.414a2.553,2.553,0,0,1,1.041.879,31.877,31.877,0,0,1,5.913,11.634c1.5,6.408.026,12.032.7,18.576" transform="translate(117.996 233.863)" fill="#5595f2"/>
        <path id="Path_3577" data-name="Path 3577" d="M170.165,346.809c6.458-3.645,12.346-7.227,19.664-8.424,2.921-.477,7.2.349,10,1.328,1.3.458,2.711,1.751,2.092,2.985a2.554,2.554,0,0,1-.991.934A31.844,31.844,0,0,1,188.7,348.2c-6.535.772-11.956-1.326-18.538-1.39" transform="translate(122.566 243.631)" fill="#5595f2"/>
        <path id="Path_3578" data-name="Path 3578" d="M170.734,365.141c-4-4.72-7.858-8.983-9.986-14.793a19.551,19.551,0,0,1-.48-8.4c.17-1.139,1.01-2.5,2.118-2.181a2.125,2.125,0,0,1,.92.666,26.566,26.566,0,0,1,5.66,9.3c1.658,5.235.788,10.005,1.768,15.409" transform="translate(115.269 244.693)" fill="#5595f2"/>
        <path id="Path_3579" data-name="Path 3579" d="M166.215,358.424c5.14-3.444,9.811-6.8,15.823-8.259a19.537,19.537,0,0,1,8.4.468c1.111.3,2.367,1.283,1.928,2.348a2.134,2.134,0,0,1-.764.841,26.591,26.591,0,0,1-9.878,4.578c-5.388,1.058-10.031-.342-15.51.024" transform="translate(119.721 252.014)" fill="#5595f2"/>
        <path id="Path_3580" data-name="Path 3580" d="M167.549,372.714c-3.63-3.551-7.108-6.738-9.291-11.323a16.07,16.07,0,0,1-1.034-6.826c.052-.943.633-2.118,1.562-1.944a1.732,1.732,0,0,1,.8.473,21.811,21.811,0,0,1,5.336,7.165c1.755,4.151,1.409,8.116,2.623,12.455" transform="translate(113.228 253.973)" fill="#5595f2"/>
        <path id="Path_3581" data-name="Path 3581" d="M163.21,368.129c3.936-3.207,7.5-6.3,12.3-7.96a16.069,16.069,0,0,1,6.9-.26c.932.158,2.032.869,1.756,1.772a1.734,1.734,0,0,1-.561.745,21.787,21.787,0,0,1-7.721,4.5c-4.321,1.278-8.221.489-12.67,1.208" transform="translate(117.556 259.056)" fill="#5595f2"/>
        <path id="Path_3582" data-name="Path 3582" d="M150.709,448.041q-8.1-19.139-18.225-37.781-10.157-18.69-22.274-36.745-11.978-17.846-25.789-34.954-13.957-17.247-29.69-33.609-15.653-16.275-32.974-31.543-2.144-1.891-4.316-3.766a1.873,1.873,0,0,1,.323-3.067c1.208-.75,2.928,1.132,3.972,2.033,11.753,10.157,22.952,19.061,33.6,29.919q15.851,16.164,29.986,33.263,14.319,17.322,26.821,35.458,12.345,17.942,22.768,36.575,10.409,18.615,18.806,37.793,1.037,2.366,2.04,4.741a2,2,0,0,1-1.314,2.863c-1.233.411-3.251-.034-3.736-1.18" transform="translate(12.088 191.884)" fill="#88b4ff"/>
        <path id="Path_3583" data-name="Path 3583" d="M34.427,279.771c-4.894-7.2-9.219-14.036-16.294-19.109-2.823-2.025-7.758-3.391-11.208-3.814-1.607-.2-3.764.428-3.754,2.049a2.993,2.993,0,0,0,.554,1.5A37.379,37.379,0,0,0,14.2,271.571c6.473,4.22,13.269,4.837,20.224,8.2" transform="translate(2.284 184.977)" fill="#88b4ff"/>
        <path id="Path_3584" data-name="Path 3584" d="M29.1,290.518c2.467-8.574,5.02-16.46,4.382-25.359-.255-3.551-2.414-8.333-4.339-11.328-.9-1.4-2.8-2.684-4.074-1.615a3.071,3.071,0,0,0-.817,1.419,38.305,38.305,0,0,0-1.94,15.577c.917,7.863,4.882,13.621,6.788,21.306" transform="translate(15.946 181.381)" fill="#88b4ff"/>
        <path id="Path_3585" data-name="Path 3585" d="M42.8,275.435c-8.8-1.488-16.919-3.136-25.689-1.5-3.5.652-8.01,3.334-10.769,5.584C5.057,280.564,3.99,282.6,5.2,283.745a3.051,3.051,0,0,0,1.5.654,38.3,38.3,0,0,0,15.7.175c7.71-1.794,12.988-6.382,20.408-9.14" transform="translate(3.363 196.819)" fill="#88b4ff"/>
        <path id="Path_3586" data-name="Path 3586" d="M41.908,303.629c2.67-9.279,5.433-17.815,4.743-27.445-.275-3.843-2.611-9.019-4.695-12.26-.972-1.512-3.036-2.906-4.409-1.749a3.323,3.323,0,0,0-.886,1.536,41.462,41.462,0,0,0-2.1,16.859c.991,8.512,5.283,14.745,7.346,23.06" transform="translate(24.762 188.53)" fill="#88b4ff"/>
        <path id="Path_3587" data-name="Path 3587" d="M56.591,286.751c-9.52-1.61-18.312-3.394-27.8-1.626-3.786.705-8.668,3.609-11.655,6.043-1.392,1.135-2.546,3.342-1.242,4.578a3.318,3.318,0,0,0,1.626.707,41.486,41.486,0,0,0,16.989.191c8.345-1.942,14.055-6.909,22.087-9.893" transform="translate(11.034 204.841)" fill="#88b4ff"/>
        <path id="Path_3588" data-name="Path 3588" d="M57.056,323.839c3.413-11.863,6.945-22.775,6.062-35.087-.351-4.913-3.339-11.531-6-15.675-1.242-1.932-3.879-3.714-5.637-2.235a4.237,4.237,0,0,0-1.13,1.963c-2.192,6.473-3.475,14.767-2.685,21.553,1.268,10.881,6.756,18.849,9.393,29.48" transform="translate(34.162 194.687)" fill="#88b4ff"/>
        <path id="Path_3589" data-name="Path 3589" d="M75.476,303.289c-12.171-2.057-23.411-4.34-35.546-2.078-4.843.9-11.082,4.614-14.9,7.726-1.78,1.452-3.256,4.273-1.588,5.852a4.256,4.256,0,0,0,2.078.9c6.678,1.448,15.063,1.791,21.719.243,10.669-2.482,17.97-8.83,28.237-12.647" transform="translate(16.359 216.28)" fill="#88b4ff"/>
        <path id="Path_3590" data-name="Path 3590" d="M67.892,339.237c4.406-11.531,8.847-22.106,9.011-34.447.065-4.925-2.35-11.774-4.653-16.128-1.073-2.03-3.552-4.029-5.427-2.7a4.258,4.258,0,0,0-1.294,1.861c-2.732,6.263-4.712,14.418-4.5,21.249.342,10.948,5.133,19.351,6.862,30.169" transform="translate(43.947 205.662)" fill="#88b4ff"/>
        <path id="Path_3591" data-name="Path 3591" d="M87.682,319.625c-11.952-3.081-22.961-6.307-35.242-5.08-4.9.489-11.435,3.659-15.5,6.437-1.9,1.3-3.606,3.982-2.078,5.7a4.242,4.242,0,0,0,2,1.075c6.53,2.011,14.856,3.062,21.619,2.082,10.841-1.571,18.653-7.278,29.207-10.212" transform="translate(24.685 226.367)" fill="#88b4ff"/>
        <path id="Path_3592" data-name="Path 3592" d="M77.794,351.154c4.132-9.14,8.249-17.5,8.978-27.507.291-3.993-1.337-9.663-2.993-13.306-.774-1.7-2.687-3.442-4.273-2.458a3.453,3.453,0,0,0-1.139,1.448,43.088,43.088,0,0,0-4.679,17.017c-.253,8.9,3.229,15.949,4.106,24.806" transform="translate(53.066 221.555)" fill="#88b4ff"/>
        <path id="Path_3593" data-name="Path 3593" d="M94.542,335.9c-9.548-3.078-18.319-6.227-28.342-5.828-4,.16-9.453,2.415-12.887,4.471-1.6.96-3.117,3.057-1.961,4.521a3.458,3.458,0,0,0,1.565.97,43.058,43.058,0,0,0,17.437,2.735c8.87-.75,15.484-5,24.187-6.869" transform="translate(36.695 237.72)" fill="#88b4ff"/>
        <path id="Path_3594" data-name="Path 3594" d="M85.359,362.426c4.02-7.34,7.977-14.036,9.221-22.31.5-3.3-.5-8.125-1.643-11.261-.535-1.462-2.014-3.035-3.4-2.315a2.879,2.879,0,0,0-1.039,1.13,35.928,35.928,0,0,0-4.977,13.86c-.778,7.385,1.669,13.472,1.836,20.9" transform="translate(60.051 235.069)" fill="#88b4ff"/>
        <path id="Path_3595" data-name="Path 3595" d="M99.915,350.568c-7.746-3.169-14.843-6.348-23.207-6.654-3.337-.122-8.016,1.407-11,2.9-1.392.7-2.787,2.345-1.92,3.637a2.894,2.894,0,0,0,1.242.907,35.945,35.945,0,0,0,14.332,3.385c7.426-.059,13.2-3.174,20.557-4.173" transform="translate(45.749 247.708)" fill="#88b4ff"/>
        <path id="Path_3596" data-name="Path 3596" d="M91.365,371.665c3.847-5.691,7.592-10.857,9.241-17.524.657-2.66.215-6.675-.482-9.326-.325-1.235-1.414-2.632-2.6-2.152a2.371,2.371,0,0,0-.936.845,29.526,29.526,0,0,0-5.126,10.943c-1.2,5.976.334,11.135-.1,17.215" transform="translate(65.541 246.742)" fill="#88b4ff"/>
        <path id="Path_3597" data-name="Path 3597" d="M103.719,362.917c-6.086-3.181-11.641-6.322-18.452-7.211-2.716-.354-6.657.537-9.212,1.528-1.192.461-2.457,1.7-1.848,2.823a2.385,2.385,0,0,0,.946.836,29.47,29.47,0,0,0,11.45,3.862c6.071.521,11.025-1.583,17.115-1.837" transform="translate(53.336 256.149)" fill="#88b4ff"/>
        <path id="Path_3598" data-name="Path 3598" d="M130.194,398.98q-9.4-8.443-19.792-16.086-10.417-7.664-21.751-14.471-11.2-6.73-23.224-12.579Q53.289,349.958,40.4,345.016q-12.82-4.916-26.3-8.844-1.672-.488-3.349-.958a1.138,1.138,0,0,1-.614-1.772c.47-.724,1.9-.132,2.711.095,9.092,2.553,17.555,4.56,26.224,7.786q12.9,4.8,25.1,10.562Q76.533,357.72,88.1,364.472q11.429,6.686,21.982,14.251,10.536,7.555,20.113,15.943,1.182,1.035,2.346,2.082a1.212,1.212,0,0,1,.017,1.915,2.011,2.011,0,0,1-2.362.317" transform="translate(7.153 239.919)" fill="#5595f2"/>
        <path id="Path_3599" data-name="Path 3599" d="M22.694,336.974c-4.554-2.7-8.7-5.345-13.905-6.308a16.709,16.709,0,0,0-7.153.8c-.938.306-1.963,1.208-1.538,2.1a1.819,1.819,0,0,0,.693.681,22.709,22.709,0,0,0,8.653,3.444c4.653.65,8.553-.766,13.25-.71" transform="translate(0 238.077)" fill="#5595f2"/>
        <path id="Path_3600" data-name="Path 3600" d="M22.05,343.968c-.857-5.355-1.49-10.356-4.139-15.089a17.168,17.168,0,0,0-5.314-5.114c-.855-.537-2.236-.754-2.66.162a1.865,1.865,0,0,0-.084.993,23.277,23.277,0,0,0,2.957,9.074c2.536,4.092,6.205,6.238,9.24,9.974" transform="translate(7.078 232.867)" fill="#5595f2"/>
        <path id="Path_3601" data-name="Path 3601" d="M25.432,335.26c-5.226,1.454-10.122,2.644-14.528,5.809a17.151,17.151,0,0,0-4.485,5.856c-.437.908-.5,2.307.461,2.625a1.888,1.888,0,0,0,1-.029,23.3,23.3,0,0,0,8.684-3.958c3.781-2.979,5.5-6.867,8.871-10.3" transform="translate(4.405 241.48)" fill="#5595f2"/>
        <path id="Path_3602" data-name="Path 3602" d="M32.433,347.915c-.927-5.8-1.612-11.209-4.48-16.331a18.55,18.55,0,0,0-5.751-5.536c-.926-.581-2.422-.815-2.88.175a2.029,2.029,0,0,0-.089,1.075,25.193,25.193,0,0,0,3.2,9.821c2.744,4.428,6.716,6.75,10,10.795" transform="translate(13.832 234.483)" fill="#5595f2"/>
        <path id="Path_3603" data-name="Path 3603" d="M35.869,338.224c-5.656,1.574-10.956,2.863-15.723,6.288a18.584,18.584,0,0,0-4.855,6.337c-.473.984-.538,2.5.5,2.84a2,2,0,0,0,1.079-.031,25.189,25.189,0,0,0,9.4-4.284c4.091-3.226,5.952-7.433,9.6-11.151" transform="translate(10.777 243.615)" fill="#5595f2"/>
        <path id="Path_3604" data-name="Path 3604" d="M45.79,355.272c-1.185-7.411-2.061-14.33-5.727-20.879-1.462-2.613-4.817-5.484-7.352-7.075-1.184-.743-3.095-1.043-3.681.225a2.591,2.591,0,0,0-.115,1.373A32.243,32.243,0,0,0,33,341.472c3.509,5.661,8.588,8.631,12.785,13.8" transform="translate(20.799 235.297)" fill="#5595f2"/>
        <path id="Path_3605" data-name="Path 3605" d="M50.253,343.54c-7.23,2.011-14.007,3.659-20.1,8.039-2.432,1.748-4.908,5.4-6.205,8.1-.606,1.259-.688,3.193.637,3.633a2.574,2.574,0,0,0,1.378-.041A32.241,32.241,0,0,0,37.978,357.8c5.23-4.124,7.609-9.5,12.274-14.256" transform="translate(16.945 247.444)" fill="#5595f2"/>
        <path id="Path_3606" data-name="Path 3606" d="M55.374,361.114c-.554-7.485-.839-14.452-3.939-21.288-1.237-2.727-4.335-5.871-6.726-7.674-1.116-.84-3-1.3-3.687-.086a2.586,2.586,0,0,0-.232,1.359A32.237,32.237,0,0,0,43.8,346.281c3.016,5.937,7.826,9.326,11.571,14.832" transform="translate(29.377 238.646)" fill="#5595f2"/>
        <path id="Path_3607" data-name="Path 3607" d="M61.391,348.911c-7.375,1.392-14.266,2.46-20.71,6.308-2.572,1.534-5.347,4.968-6.869,7.547-.709,1.2-.955,3.124.329,3.673a2.57,2.57,0,0,0,1.376.077,32.25,32.25,0,0,0,12.438-4.44c5.56-3.664,8.386-8.825,13.437-13.165" transform="translate(23.933 251.313)" fill="#5595f2"/>
        <path id="Path_3608" data-name="Path 3608" d="M63.926,365.063c-.088-6.1.019-11.765-2.164-17.459a19.294,19.294,0,0,0-5.085-6.551c-.865-.736-2.367-1.2-2.986-.249a2.092,2.092,0,0,0-.253,1.091,26.185,26.185,0,0,0,1.82,10.576c2.161,4.963,5.9,7.944,8.668,12.592" transform="translate(38.481 245.088)" fill="#5595f2"/>
        <path id="Path_3609" data-name="Path 3609" d="M69.674,354.918c-6.05.772-11.693,1.3-17.1,4.113a19.312,19.312,0,0,0-5.938,5.79c-.633.941-.926,2.488.088,2.995a2.1,2.1,0,0,0,1.113.129,26.2,26.2,0,0,0,10.3-3c4.688-2.7,7.23-6.752,11.538-10.029" transform="translate(33.173 255.639)" fill="#5595f2"/>
        <path id="Path_3610" data-name="Path 3610" d="M71,369.31c.317-5.078.764-9.785-.688-14.662a16.089,16.089,0,0,0-3.814-5.773c-.671-.667-1.892-1.149-2.467-.4a1.726,1.726,0,0,0-.28.891,21.826,21.826,0,0,0,.841,8.914c1.479,4.265,4.4,6.983,6.408,11.027" transform="translate(45.822 250.726)" fill="#5595f2"/>
        <path id="Path_3611" data-name="Path 3611" d="M76.644,360.64c-5.082.256-9.809.341-14.492,2.333a16.1,16.1,0,0,0-5.309,4.438c-.587.743-.929,2.009-.117,2.5a1.753,1.753,0,0,0,.917.177,21.836,21.836,0,0,0,8.763-1.839c4.074-1.949,6.446-5.156,10.237-7.607" transform="translate(40.514 259.761)" fill="#5595f2"/>
        <path id="Path_3612" data-name="Path 3612" d="M76.724,372.848c.647-4.125,1.373-7.937.559-12.032a13.209,13.209,0,0,0-2.673-5.009c-.5-.6-1.459-1.084-1.987-.513a1.449,1.449,0,0,0-.3.705,17.919,17.919,0,0,0,.007,7.347c.882,3.6,3.059,6.043,4.392,9.5" transform="translate(51.822 255.727)" fill="#5595f2"/>
        <path id="Path_3613" data-name="Path 3613" d="M82.118,365.649c-4.172-.179-8.041-.471-12.02.8a13.219,13.219,0,0,0-4.676,3.219c-.537.563-.913,1.572-.287,2.032a1.455,1.455,0,0,0,.736.217,17.955,17.955,0,0,0,7.3-.833c3.477-1.282,5.66-3.719,8.945-5.433" transform="translate(46.681 263.252)" fill="#5595f2"/>
        <path id="Path_3614" data-name="Path 3614" d="M171.153,358.488c.129-.2.26-.411.39-.616a177.643,177.643,0,0,0-16.394-36.408c-12.555-21.3-28.994-40.115-47.015-57.038a377.607,377.607,0,0,0-49.473-39.215c4.824,15.93,6.941,25,10.3,37.567a126.53,126.53,0,0,1,3.528,19.943,202.2,202.2,0,0,0,21.98,4.471L73.061,289.7c1.142,18.047-.034,36.444,1.215,54.571q3.112.263,6.236.382c5.536.2,11.24.088,16.4,2.114A196.687,196.687,0,0,1,76.241,360.6c7.81,43.172,37.779,87.538,74.362,110.585,14.629-9.546,22.1-27.051,25.414-44.2a135.82,135.82,0,0,0,2.1-35.677,140.22,140.22,0,0,0-2.519-17.965c-5.323,2.907-10.674,5.76-16.078,8.512a130.728,130.728,0,0,1,11.634-23.361" transform="translate(42.252 162.214)" fill="#a694ea"/>
        <path id="Path_3615" data-name="Path 3615" d="M106.276,263.162a377.614,377.614,0,0,0-45.035-36.2c6.967,6.725,12.087,15.082,16.859,23.468,5.522,9.7,11.288,19.257,17.156,28.751,20.01,32.379,32.352,69.577,42.271,106.485,7.488,27.868,11.319,57.235,8.13,82.238,1.025.685,2.052,1.361,3.088,2.013,14.629-9.548,22.1-27.053,25.414-44.2a135.816,135.816,0,0,0,2.1-35.677,140.2,140.2,0,0,0-2.519-17.963c-5.323,2.907-10.674,5.758-16.078,8.51A130.729,130.729,0,0,1,169.3,357.223l.39-.616A177.677,177.677,0,0,0,153.293,320.2c-12.556-21.3-29-40.113-47.017-57.038" transform="translate(44.111 163.477)" fill="#8969e2"/>
        <path id="Path_3616" data-name="Path 3616" d="M135.944,439.2q-1.368-19.044-4.354-37.924-2.993-18.9-7.6-37.509-4.6-18.582-10.759-36.728-6.141-18.078-13.8-35.6-7.666-17.539-16.821-34.375-1.135-2.085-2.293-4.158a.778.778,0,0,0-1.366.743q9.29,16.654,17.129,34.058,7.816,17.361,14.136,35.347t11.1,36.473q4.753,18.388,7.943,37.134,3.192,18.773,4.763,37.772.2,2.366.365,4.734c.072.991,1.627,1.027,1.555.028" transform="translate(56.797 181.888)" fill="#fff"/>
        <path id="Path_3617" data-name="Path 3617" d="M124.071,352.743a133.065,133.065,0,0,0-25.1-20.513q-3.845-2.428-7.851-4.583c-.879-.473-1.677.862-.793,1.338a131.387,131.387,0,0,1,26.119,18.486q3.362,3.063,6.506,6.351a.778.778,0,0,0,1.118-1.08" transform="translate(64.784 235.925)" fill="#fff"/>
        <path id="Path_3618" data-name="Path 3618" d="M110.98,305.686a132.237,132.237,0,0,0-22.518-23.115q-3.6-2.89-7.4-5.531c-.821-.571-1.612.769-.793,1.338a131.379,131.379,0,0,1,23.886,21.39q2.97,3.4,5.7,7a.785.785,0,0,0,1.1.019.8.8,0,0,0,.019-1.1" transform="translate(57.571 199.446)" fill="#fff"/>
        <path id="Path_3619" data-name="Path 3619" d="M106.5,341.519q3.793-9.109,6.8-18.521,3.014-9.439,5.207-19.119,1.228-5.419,2.192-10.891a.8.8,0,0,0-.538-.96.782.782,0,0,0-.958.537q-1.716,9.72-4.254,19.265-2.552,9.579-5.919,18.911Q107.136,335.97,105,341.1a.785.785,0,0,0,.537.962.8.8,0,0,0,.96-.54" transform="translate(75.598 210.323)" fill="#fff"/>
        <path id="Path_3620" data-name="Path 3620" d="M423.458,176.034c1.577-22.747-13.822-38.276-38.61-39.995-20.353-1.411-37.354,6.492-50.375,21.051a12.3,12.3,0,0,1-17.027,1.45L292,137.56a12.17,12.17,0,0,1-2.037-16.723c23.48-30.79,58.756-48.412,105.584-45.166,57.2,3.967,94.7,37.82,90.906,92.6-4.784,69-60.9,77.282-71.594,117.553a12.225,12.225,0,0,1-12.651,9.086l-33.5-2.322a12.2,12.2,0,0,1-11.13-14.645c11.347-52.966,63.292-64.553,65.881-101.913m-80.571,189.4c1.641-23.676,17.74-34.787,39.1-33.306s35.765,14.707,34.123,38.383c-1.61,23.213-17.829,36.086-39.185,34.607s-35.644-16.472-34.034-39.683" transform="translate(207.098 54.229)" fill="#8969e2"/>
        <path id="Path_3621" data-name="Path 3621" d="M427.955,176.223c1.578-22.747-13.822-38.276-38.61-39.995-20.353-1.411-37.354,6.492-50.375,21.051a12.3,12.3,0,0,1-17.027,1.45L296.5,137.749a12.169,12.169,0,0,1-2.035-16.723c23.478-30.788,58.754-48.412,105.582-45.166,57.2,3.967,94.7,37.82,90.906,92.6-4.784,69-60.9,77.282-71.595,117.553a12.225,12.225,0,0,1-12.651,9.087l-33.5-2.322a12.2,12.2,0,0,1-11.13-14.645c11.347-52.966,63.292-64.553,65.881-101.913m-80.571,189.4c1.641-23.676,17.74-34.787,39.1-33.306S422.244,347.027,420.6,370.7c-1.61,23.213-17.829,36.086-39.184,34.607s-35.642-16.472-34.034-39.683" transform="translate(210.338 54.365)" fill="#a694ea"/>
        <path id="Path_3622" data-name="Path 3622" d="M233.572,52.418c.451-6.506-3.953-10.946-11.041-11.438A17.121,17.121,0,0,0,208.124,47a3.515,3.515,0,0,1-4.868.415l-7.277-6a3.479,3.479,0,0,1-.581-4.782c6.714-8.8,16.8-13.845,30.193-12.916,16.358,1.134,27.082,10.815,26,26.482-1.368,19.73-17.416,22.1-20.473,33.616a3.5,3.5,0,0,1-3.619,2.6l-9.58-.664a3.487,3.487,0,0,1-3.183-4.187c3.244-15.147,18.1-18.46,18.84-29.143m-23.041,54.163c.47-6.771,5.073-9.948,11.18-9.525s10.227,4.206,9.757,10.977c-.459,6.639-5.1,10.32-11.2,9.9s-10.194-4.71-9.733-11.349" transform="translate(140.237 17.004)" fill="#8969e2"/>
        <path id="Path_3623" data-name="Path 3623" d="M234.858,52.472c.451-6.506-3.953-10.946-11.041-11.438a17.121,17.121,0,0,0-14.407,6.019,3.515,3.515,0,0,1-4.868.415l-7.277-6a3.479,3.479,0,0,1-.581-4.782c6.714-8.8,16.8-13.845,30.193-12.916,16.358,1.134,27.082,10.815,26,26.48-1.368,19.732-17.416,22.1-20.473,33.618a3.5,3.5,0,0,1-3.619,2.6L219.2,85.8a3.487,3.487,0,0,1-3.182-4.187c3.244-15.147,18.1-18.46,18.84-29.143m-23.041,54.163c.47-6.771,5.073-9.948,11.18-9.525s10.227,4.206,9.757,10.977c-.459,6.639-5.1,10.32-11.2,9.9s-10.194-4.71-9.733-11.349" transform="translate(141.164 17.043)" fill="#a694ea"/>
        <path id="Path_3624" data-name="Path 3624" d="M61.247,153.691c-1.834-4.442-6.2-5.93-11.036-3.933a12.618,12.618,0,0,0-7.537,8.694,2.592,2.592,0,0,1-3.078,1.868l-6.769-1.576a2.566,2.566,0,0,1-1.951-2.966c1.547-8.011,6.554-14.643,15.7-18.417,11.168-4.61,21.419-1.734,25.835,8.961,5.562,13.471-4.254,20.294-2.5,28.9a2.576,2.576,0,0,1-1.536,2.9l-6.542,2.7a2.572,2.572,0,0,1-3.473-1.722c-2.82-11.06,5.9-18.115,2.888-25.408m2.537,43.3c-1.908-4.622.089-8.228,4.258-9.95s8.13-.575,10.038,4.048c1.872,4.533.015,8.483-4.154,10.2s-8.269.231-10.141-4.3" transform="translate(22.207 97.412)" fill="#8969e2"/>
        <path id="Path_3625" data-name="Path 3625" d="M62.113,153.305c-1.834-4.442-6.2-5.93-11.036-3.933a12.618,12.618,0,0,0-7.537,8.694,2.592,2.592,0,0,1-3.078,1.868l-6.769-1.576a2.566,2.566,0,0,1-1.951-2.966c1.547-8.011,6.554-14.643,15.7-18.417,11.168-4.61,21.419-1.734,25.835,8.961,5.562,13.471-4.254,20.294-2.5,28.9a2.576,2.576,0,0,1-1.536,2.9l-6.542,2.7a2.572,2.572,0,0,1-3.473-1.722c-2.82-11.06,5.9-18.115,2.888-25.409m2.537,43.3c-1.908-4.622.089-8.228,4.258-9.95s8.13-.575,10.038,4.048c1.872,4.533.015,8.483-4.153,10.2s-8.271.232-10.143-4.3" transform="translate(22.831 97.134)" fill="#a694ea"/>
        <path id="Path_3626" data-name="Path 3626" d="M141.38,338.514c-4.548,16.938-7.844,34.748-13.678,51.281-3.014,8.543-8.273,12.966-15.6,14.951a59.787,59.787,0,0,0,2.169,6.019,2.628,2.628,0,0,0,2.359,1.574,203.61,203.61,0,0,0,20.848-1.079c6.191-40.526,11.445-82.1,17.026-123.315-4.132,16.914-8.608,33.748-13.124,50.568" transform="translate(80.745 207.401)" fill="#020a2d"/>
        <path id="Path_3627" data-name="Path 3627" d="M140.269,89.776c1.725,7.23-.413,14.793-3.035,21.748a29.282,29.282,0,0,0-2.09,7.18,22.775,22.775,0,0,0,.243,5.448c1.116,8.189,3.945,16.812,10.692,21.583,2.488,1.758,5.656,5.859,8.591,5.042,1.97-.55,3.6-4.867,5.013-6.348,6.138-6.442,8.973-15.3,11.02-23.96a7.139,7.139,0,0,0,.277-2.2,8.127,8.127,0,0,0-.843-2.556A33.6,33.6,0,0,1,169.1,91.472" transform="translate(97.285 64.664)" fill="#ff9670"/>
        <path id="Path_3628" data-name="Path 3628" d="M138.483,98.705a9.5,9.5,0,0,1,1.755,1.459c3.828,4.05,11.43,4.652,16.623,4.013,2.223-.272,6.609-2.876,8.416-4.631a21.41,21.41,0,0,1,1.641-8.073l-28.827-1.7a25.461,25.461,0,0,1,.392,8.928" transform="translate(99.464 64.664)" fill="#fc7f51"/>
        <path id="Path_3629" data-name="Path 3629" d="M139.4,352.38s-6.511,24.879-3.528,34.784c0,0-13.095,6.919-25.928-1.877,0,0,12.515-4.221,8.252-39.565" transform="translate(79.192 249.016)" fill="#ff9670"/>
        <path id="Path_3630" data-name="Path 3630" d="M92.6,385.044a4.4,4.4,0,0,1,1.775-1.946c4.352-2.474,14.953-8.342,30.975-16.219,0,0,8.976,3.01,22.606,1.3a106.964,106.964,0,0,1,1.283,16.331c-8.345.368-40.549,1.663-56.64.538" transform="translate(66.696 264.255)" fill="#030f4c"/>
        <path id="Path_3631" data-name="Path 3631" d="M149.432,377.125c-.04,1.844-.114,3.607-.241,5.12H92.327v-2.675a4.376,4.376,0,0,1,.464-1.906c16.091,1.125,48.3-.17,56.64-.538" transform="translate(66.501 271.635)" fill="#465282"/>
        <path id="Path_3632" data-name="Path 3632" d="M110.378,368.926a1.006,1.006,0,1,0,1.006-1.006,1.007,1.007,0,0,0-1.006,1.006" transform="translate(79.503 265.004)" fill="#fff"/>
        <path id="Path_3633" data-name="Path 3633" d="M100.375,373.749a1.007,1.007,0,1,0,1.006-1.006,1.007,1.007,0,0,0-1.006,1.006" transform="translate(72.298 268.478)" fill="#fff"/>
        <path id="Path_3634" data-name="Path 3634" d="M105.877,371.462a1.007,1.007,0,1,0,1.006-1.006,1.007,1.007,0,0,0-1.006,1.006" transform="translate(76.261 266.831)" fill="#fff"/>
        <path id="Path_3635" data-name="Path 3635" d="M166.893,353.141s6.513,24.879,3.528,34.784c0,0,13.095,6.919,25.928-1.877,0,0-12.515-4.222-8.254-39.565" transform="translate(120.209 249.564)" fill="#ff9670"/>
        <path id="Path_3636" data-name="Path 3636" d="M225.087,385.805a4.4,4.4,0,0,0-1.775-1.946c-4.352-2.474-14.953-8.342-30.975-16.219,0,0-8.976,3.011-22.606,1.3a106.961,106.961,0,0,0-1.283,16.331c8.345.368,40.549,1.663,56.64.538" transform="translate(121.319 264.804)" fill="#030f4c"/>
        <path id="Path_3637" data-name="Path 3637" d="M168.441,377.886c.04,1.844.114,3.607.241,5.12h56.864v-2.675a4.375,4.375,0,0,0-.464-1.906c-16.091,1.125-48.3-.17-56.64-.538" transform="translate(121.324 272.183)" fill="#465282"/>
        <path id="Path_3638" data-name="Path 3638" d="M184.429,369.687a1.008,1.008,0,1,1-1.008-1.006,1.008,1.008,0,0,1,1.008,1.006" transform="translate(131.388 265.553)" fill="#fff"/>
        <path id="Path_3639" data-name="Path 3639" d="M194.431,374.51a1.007,1.007,0,1,1-1.006-1.006,1.007,1.007,0,0,1,1.006,1.006" transform="translate(138.594 269.026)" fill="#fff"/>
        <path id="Path_3640" data-name="Path 3640" d="M188.929,372.223a1.007,1.007,0,1,1-1.006-1.006,1.007,1.007,0,0,1,1.006,1.006" transform="translate(134.631 267.379)" fill="#fff"/>
        <path id="Path_3641" data-name="Path 3641" d="M140.818,477.452a203.637,203.637,0,0,1-20.848,1.079,2.628,2.628,0,0,1-2.36-1.574c-4.674-10.853-5.729-22.942-6.577-34.762-5.816-81.066-4.2-158.321,2.589-239.311.065-.784-.951-5.916-.353-6.425.766-.652,1.918-.4,2.881-.115A310.486,310.486,0,0,0,216.787,208.7c2.281-.1,4.844-.119,6.489,1.466.915.882-.385-1.211,0,0a129.548,129.548,0,0,1,5.116,24.954c3.131,40.37,6.264,80.757,7.564,121.228,1.283,39.935.781,79.9.229,119.853a3.955,3.955,0,0,1-3.439,3.865l-11.061,1.455a35.922,35.922,0,0,1-5.739.2c-3.47-.218-4.966.232-5.486-1.433-20.122-64.519-28.684-176.148-39.671-226.788-.335,14.106-2.47,28.1-4.6,42.052-9.143,59.859-16.226,122.033-25.369,181.894" transform="translate(77.408 141.209)" fill="#030f4c"/>
        <path id="Path_3642" data-name="Path 3642" d="M111.949,202.884q-1.19,14.177-2.156,28.211c16-3.42,34.184-1.884,49.222-2.615,12.635-.616,24.507-3.344,36.552-7.055,8.87-2.732,18.293-5.861,26.043-11.227l-.009-.029c-1.645-1.584-4.208-1.562-6.489-1.466a310.575,310.575,0,0,1-100.636-12.36c-.963-.284-2.116-.537-2.881.115-.6.509.418,5.641.353,6.425" transform="translate(79.081 141.209)" fill="#020a2d"/>
        <path id="Path_3643" data-name="Path 3643" d="M193.09,315.331c-.669-20.8-1.824-41.569-3.212-62.331-.274,4.732-.578,9.427-.867,14.049-1.559,24.956-5.049,49.731-6.491,74.706-1.311,22.718-3.3,45.8-2.859,68.55.231,11.779-2.692,23.107-12.678,26.928.2.676.4,1.374.611,2.04.52,1.665,2.016,1.215,5.486,1.433a35.929,35.929,0,0,0,5.739-.2l11.061-1.455a3.955,3.955,0,0,0,3.439-3.865c.552-39.952,1.055-79.919-.229-119.853" transform="translate(120.274 182.23)" fill="#020a2d"/>
        <path id="Path_3644" data-name="Path 3644" d="M145.24,231.468q5.8,21.229,10.889,42.64,5.117,21.521,9.517,43.2,4.379,21.575,8.041,43.287,3.682,21.82,6.637,43.752,2.957,21.952,5.178,43.994.281,2.792.551,5.587c.081.834,1.4.843,1.316,0q-2.129-22.029-4.985-43.979-2.857-21.923-6.434-43.743t-7.887-43.535q-4.3-21.7-9.327-43.243t-10.759-42.9q-.728-2.709-1.466-5.414a.659.659,0,0,0-1.27.349" transform="translate(104.594 166.133)" fill="#465282"/>
        <path id="Path_3645" data-name="Path 3645" d="M157.272,230.748q-5.181,21.193-9.652,42.555-4.487,21.454-8.244,43.055-3.736,21.484-6.743,43.086-2.991,21.469-5.262,43.028-2.291,21.784-3.843,43.638-.191,2.676-.368,5.355c-.057.845,1.259.841,1.316,0q1.455-21.748,3.64-43.439,2.188-21.709,5.114-43.337,2.924-21.608,6.58-43.11,3.636-21.4,7.991-42.665,4.376-21.376,9.475-42.592.627-2.614,1.266-5.224c.2-.822-1.068-1.173-1.27-.349" transform="translate(88.707 165.864)" fill="#465282"/>
        <path id="Path_3646" data-name="Path 3646" d="M110.7,226.7A78.61,78.61,0,0,0,123.3,207.313c.351-.769-.91-1.151-1.258-.391A76.5,76.5,0,0,1,109.8,225.738c-.557.631.339,1.6.9.962" transform="translate(78.963 148.744)" fill="#465282"/>
        <path id="Path_3647" data-name="Path 3647" d="M183.928,224.216a78.562,78.562,0,0,1-16.558-16.131c-.513-.673.633-1.325,1.141-.659a76.409,76.409,0,0,0,16.081,15.655c.685.492.022,1.631-.664,1.135" transform="translate(120.46 149.203)" fill="#465282"/>
        <path id="Path_3648" data-name="Path 3648" d="M135.259,62.175a112.876,112.876,0,0,0-2.334,25.708c.184,7.715,1.818,14.5,6.3,20.779,5.273,7.385,9.663,11.811,17.371,12.2,7.459.372,13.184-3.644,17.566-9.69s7.258-11.9,8.354-19.284a100.7,100.7,0,0,0-.229-30.98" transform="translate(95.719 43.866)" fill="#ff9670"/>
        <path id="Path_3649" data-name="Path 3649" d="M137.382,56.062a7.532,7.532,0,0,0,2.531,6.645A7.387,7.387,0,0,0,150,62.047c.752-.822,1.746-2.389,2.976-1.454a20.234,20.234,0,0,0,2.923,2.314,9.692,9.692,0,0,0,3.287,1.006,9.519,9.519,0,0,0,7.488-2.274.658.658,0,0,0-.876-.982,8.142,8.142,0,0,1-6.095,1.983,8.239,8.239,0,0,1-3.176-.882,13.373,13.373,0,0,1-2.553-2.039,2.514,2.514,0,0,0-2.766-.544,8.813,8.813,0,0,0-2.322,2.142,5.986,5.986,0,0,1-10.187-5.18c.117-.839-1.2-.908-1.314-.076" transform="translate(98.905 39.955)" fill="#561c02"/>
        <path id="Path_3650" data-name="Path 3650" d="M142.824,49.977a6.154,6.154,0,0,1,5.6-.614,6.086,6.086,0,0,1,3.513,3.862c.241.805,1.529.537,1.287-.277a7.506,7.506,0,0,0-4.239-4.775,7.373,7.373,0,0,0-6.757.631c-.7.456-.114,1.634.6,1.173" transform="translate(102.214 34.306)" fill="#561c02"/>
        <path id="Path_3651" data-name="Path 3651" d="M155.585,55.135c2.353-.452,5.087.146,6.269,2.441a4.417,4.417,0,0,1,.088,3.582,8.7,8.7,0,0,1-.8,1.6,16,16,0,0,0-1.006,1.454c-.428.9.241,1.452.974,1.82A6.634,6.634,0,0,1,163.5,68.1c1.462,2.014,1.86,4.566,2.192,6.971.115.839,1.4.559,1.287-.277-.36-2.611-.852-5.285-2.424-7.471a7.659,7.659,0,0,0-2.439-2.242c-.1-.055-.795-.327-.8-.411.005.077.47-.509.449-.48a11.892,11.892,0,0,0,1.06-1.763,5.848,5.848,0,0,0-.581-6.592,7.23,7.23,0,0,0-6.934-1.983.658.658,0,0,0,.277,1.287" transform="translate(111.502 38.663)" fill="#561c02"/>
        <path id="Path_3652" data-name="Path 3652" d="M137.9,74.587a8.92,8.92,0,0,0-2.67-2.682,3.571,3.571,0,0,0-3.494-.16,5.224,5.224,0,0,0-2.29,3.193,9.469,9.469,0,0,0-.131,4.165c.421,2.41,1.638,4.669,3.53,5.508a4.182,4.182,0,0,0,5.388-2.451,9.226,9.226,0,0,0,.208-4.886" transform="translate(93.019 51.399)" fill="#ff9670"/>
        <path id="Path_3653" data-name="Path 3653" d="M134.475,74.452a3.144,3.144,0,0,0-.948-.951,1.266,1.266,0,0,0-1.239-.057,1.846,1.846,0,0,0-.814,1.134,3.352,3.352,0,0,0-.046,1.478,2.559,2.559,0,0,0,1.252,1.954,1.486,1.486,0,0,0,1.913-.87,3.275,3.275,0,0,0,.074-1.734" transform="translate(94.621 52.802)" fill="#fc7f51"/>
        <path id="Path_3654" data-name="Path 3654" d="M161.82,75.681a8.463,8.463,0,0,1,2.911-2.221,3.26,3.26,0,0,1,3.306.4,5.339,5.339,0,0,1,1.674,3.518,9.9,9.9,0,0,1-.5,4.132c-.757,2.312-2.24,4.345-4.142,4.872a3.994,3.994,0,0,1-4.695-3.279,9.671,9.671,0,0,1,.537-4.858" transform="translate(115.416 52.717)" fill="#ff9670"/>
        <path id="Path_3655" data-name="Path 3655" d="M162.276,75.9a3,3,0,0,1,1.032-.788,1.158,1.158,0,0,1,1.175.143,1.9,1.9,0,0,1,.593,1.247,3.52,3.52,0,0,1-.179,1.467,2.509,2.509,0,0,1-1.469,1.729,1.42,1.42,0,0,1-1.667-1.165,3.415,3.415,0,0,1,.191-1.724" transform="translate(116.479 54.035)" fill="#fc7f51"/>
        <path id="Path_3656" data-name="Path 3656" d="M191.785,81.908c-.363-2.663-1.588-5.216-1.479-7.9.1-2.439,1.3-4.755,1.247-7.194-.1-4.77-4.813-8.135-9.365-9.563s-9.561-1.813-13.521-4.474c-2.966-1.992-5.07-5.1-8.108-6.981A13.593,13.593,0,0,0,145.135,47.1a15.557,15.557,0,0,0-4.925,14.942c-4.025-.862-8.328,1.9-9.747,5.761a11.656,11.656,0,0,0,2.551,11.474l.019.021c-.686,2.837-1.479,8.816,2.353,13.564a51.451,51.451,0,0,0,1.865-10.372,18.884,18.884,0,0,0,6.664,1.97,22.091,22.091,0,0,0,9.957-1.245c3.994-1.478,7.912-4.167,12.107-3.437,2.457.428,4.554,1.992,6.444,3.619a10.732,10.732,0,0,0,3.416,2.3c2.8.938,6.424-.581,8.533,1.488a3.458,3.458,0,0,1,.337.42,52.2,52.2,0,0,0,.724,9.054,12.715,12.715,0,0,0,2.868-4.347,12.667,12.667,0,0,0,3.484-10.409" transform="translate(93.54 31.677)" fill="#6e2501"/>
        <path id="Path_3657" data-name="Path 3657" d="M144.243,85.637c1.215.012,3.678-.63,5.443-.643a23.853,23.853,0,0,1,3.728.361,1.009,1.009,0,0,1,.437.136.662.662,0,0,1,.2.735,1.493,1.493,0,0,1-.478.645,6.377,6.377,0,0,1-4.808,1.146c-1.768-.169-3.685-.814-4.524-2.379" transform="translate(103.895 61.218)" fill="#fe6705"/>
        <path id="Path_3658" data-name="Path 3658" d="M133.449,81.318c-.466,2.916,2.353,5.789,6.3,6.418s7.519-1.223,7.986-4.137-2.355-5.79-6.3-6.42-7.518,1.223-7.984,4.139" transform="translate(96.084 55.502)" fill="#fc7f51"/>
        <path id="Path_3659" data-name="Path 3659" d="M166.414,82.567c.547,2.9-2.19,5.852-6.116,6.594s-7.55-1.012-8.1-3.912,2.19-5.854,6.116-6.594,7.55,1.012,8.1,3.912" transform="translate(109.577 56.531)" fill="#fc7f51"/>
        <path id="Path_3660" data-name="Path 3660" d="M151.76,70.009c-4.9-.667-11.276-1.115-14.5.987-1.6,1.044-3.086.638-1.565-.513,4.719-3.57,9.754-3.492,17.032-2.985a1.114,1.114,0,0,1,.953,1.562,1.719,1.719,0,0,1-1.922.948" transform="translate(97.281 48.435)" fill="#6e2501"/>
        <path id="Path_3661" data-name="Path 3661" d="M138.856,74.521a2.181,2.181,0,1,0,1.751-2.89,2.413,2.413,0,0,0-1.751,2.89" transform="translate(99.992 51.582)" fill="#2d0e0b"/>
        <path id="Path_3662" data-name="Path 3662" d="M152.343,70.461c4.4-.521,10.108-.81,12.9,1.206,1.387,1,2.728.655,1.418-.444-4.065-3.411-8.56-3.439-15.077-3.114a1.057,1.057,0,0,0-.913,1.433,1.484,1.484,0,0,0,1.676.919" transform="translate(108.479 48.963)" fill="#6e2501"/>
        <path id="Path_3663" data-name="Path 3663" d="M158.323,75.617a2.181,2.181,0,1,1-1.412-3.069,2.414,2.414,0,0,1,1.412,3.069" transform="translate(110.983 52.214)" fill="#2d0e0b"/>
        <path id="Path_3664" data-name="Path 3664" d="M148.72,85.494a8.291,8.291,0,0,0,2.83-1.111,10.293,10.293,0,0,1-3.3-9.606c.074-.5.258-1.349.872-1.335.523.014.215,1.342.182,1.853-.3,4.612,1.534,6.128,4.643,8.572a.876.876,0,0,1-.033,1.33,10.285,10.285,0,0,1-4.676,2.125c-1.328.239-1.848-1.588-.516-1.827" transform="translate(106.561 52.899)" fill="#f46e45"/>
        <path id="Path_3665" data-name="Path 3665" d="M142.218,87.3a9.891,9.891,0,0,1-4.191-2.66,10.546,10.546,0,0,1-2.856-7.361,10.216,10.216,0,0,1,10.079-10.313,9.726,9.726,0,0,1,7.055,3.114,10.558,10.558,0,0,1,2.854,7.365,10.213,10.213,0,0,1-10.079,10.311,9.722,9.722,0,0,1-2.863-.456m5.455-18.491a8.185,8.185,0,0,0-2.432-.387,8.755,8.755,0,0,0-8.612,8.87,9.084,9.084,0,0,0,2.46,6.351,8.285,8.285,0,0,0,6,2.658,8.757,8.757,0,0,0,8.612-8.87,9.088,9.088,0,0,0-2.46-6.353,8.424,8.424,0,0,0-3.571-2.269" transform="translate(97.361 48.234)" fill="#d03711"/>
        <path id="Path_3666" data-name="Path 3666" d="M137.884,71.826l-.036,1.311-4.689-.265.471-1.829Z" transform="translate(95.911 51.171)" fill="#d03711"/>
        <path id="Path_3667" data-name="Path 3667" d="M158.2,88.892a10.213,10.213,0,0,1-8.849-11.383,10.549,10.549,0,0,1,3.669-6.995,9.722,9.722,0,0,1,7.361-2.295A10.214,10.214,0,0,1,169.224,79.6a10.545,10.545,0,0,1-3.669,6.991,9.887,9.887,0,0,1-4.462,2.169,9.708,9.708,0,0,1-2.9.127m-4.239-17.266a9.087,9.087,0,0,0-3.162,6.035,8.754,8.754,0,0,0,7.554,9.785,8.269,8.269,0,0,0,6.265-1.961,9.09,9.09,0,0,0,3.162-6.031,8.754,8.754,0,0,0-7.554-9.787,8.227,8.227,0,0,0-2.46.108,8.414,8.414,0,0,0-3.805,1.851" transform="translate(107.528 49.097)" fill="#d03711"/>
        <path id="Path_3668" data-name="Path 3668" d="M160.246,73.3l0,1.28,3.415.564-.308-1.86Z" transform="translate(115.421 52.786)" fill="#d03711"/>
        <path id="Path_3669" data-name="Path 3669" d="M146.747,73.839l-.5-1.134c.182-.077,4.435-1.9,6.611.958l-.982.752c-1.591-2.083-5.1-.592-5.132-.576" transform="translate(105.341 51.905)" fill="#d03711"/>
        <path id="Path_3670" data-name="Path 3670" d="M285.722,175.011c-7.368-12.016-16.005-24.509-24.032-36.095-7.819-11.287-15.4-21.863-27.8-27.442a19.868,19.868,0,0,0-3.224-1.973,84.749,84.749,0,0,0-18.99-6.952,10.333,10.333,0,0,0-4.486-.341c-.1.021-.193.057-.291.083-5.985,15.67-17.358,41.285-17.516,40.752-.138-.466-12.4-30.153-17.168-41.682a7.7,7.7,0,0,0-1.91-.017c-9.8.772-26.676,3.312-32.271,6.312v0c-12.85,5.484-20.568,16.269-28.543,27.781-8.027,11.588-16.664,24.079-24.032,36.1-.451.736-.915,1.672-.47,2.412a2.374,2.374,0,0,0,.667.642,284.005,284.005,0,0,0,32.986,20.894,2.562,2.562,0,0,0,1.681.449c.786-.169,1.213-1,1.533-1.736,3.473-7.979,7.249-12.892,11.314-18.76q-2.17,49.441-4.342,98.878a5.224,5.224,0,0,0,.729,3.613,5.126,5.126,0,0,0,2.426,1.368,171.074,171.074,0,0,0,103.838,1.565,5.827,5.827,0,0,0,3.17-1.786,5.894,5.894,0,0,0,.772-3.489c.265-27.225-1.505-54.428-3.525-81.579-.47-6.317-.92-12.646-.839-18.976,5.07,7.808,9.72,12.983,13.924,22.642.322.738.748,1.569,1.534,1.736a2.548,2.548,0,0,0,1.679-.447,283.787,283.787,0,0,0,32.986-20.9,2.346,2.346,0,0,0,.667-.64c.446-.741-.017-1.677-.47-2.414" transform="translate(61.086 72.959)" fill="#feb405"/>
        <path id="Path_3671" data-name="Path 3671" d="M207.957,190.377c-2,7.791-3.6,15.558-4.841,23.5-.939,6.006-2.861,11.23-7.459,15.362-8.839,7.946-22.644,8.98-33.883,10.483a222.472,222.472,0,0,1-49.3.879,171.079,171.079,0,0,0,103.418,1.433,5.838,5.838,0,0,0,3.172-1.786,5.9,5.9,0,0,0,.771-3.489c.265-27.22-1.5-54.419-3.523-81.565-2.24,11.841-5.366,23.545-8.355,35.183" transform="translate(81.013 111.783)" fill="#e59900"/>
        <path id="Path_3672" data-name="Path 3672" d="M129.98,145.005c.048-.231.107-.459.172-.686a9.531,9.531,0,0,1-1.242.516c-7.069,2.329-12.011,7.705-19.916,8.039-6.793.287-13.463-2.02-19.792-4.524a283.689,283.689,0,0,0,26.276,16.141,2.546,2.546,0,0,0,1.679.447c.786-.167,1.213-1,1.534-1.734,3.473-7.98,7.248-12.892,11.313-18.76Z" transform="translate(64.251 103.95)" fill="#e59900"/>
        <path id="Path_3673" data-name="Path 3673" d="M214.707,159.469c-7.368-12.016-16.005-24.509-24.032-36.095-.117-.169-.234-.335-.349-.5,2.544,8.472,3.635,17.493,4.688,26.148,1.753,14.411-2.973,23.265-11.61,33.341a283.6,283.6,0,0,0,31.106-19.837,2.346,2.346,0,0,0,.667-.64c.446-.741-.017-1.677-.47-2.414" transform="translate(132.101 88.5)" fill="#e59900"/>
        <path id="Path_3674" data-name="Path 3674" d="M145.6,142.791s13.485-28.41,15.034-42.469l10.169,3.1-2.431,32-11.275-3.49Z" transform="translate(104.871 72.26)" fill="#fff"/>
        <path id="Path_3675" data-name="Path 3675" d="M155.731,143.066S142.743,114,141.277,99.939l-9.747,2.875,2.642,32.883,10.674-3.49Z" transform="translate(94.738 71.984)" fill="#fff"/>
        <path id="Path_3676" data-name="Path 3676" d="M147.919,125.272q-3.055,28.47-4.158,57.1-.544,14.223-.6,28.46c-.038,9.424.1,18.846.017,28.268a296.591,296.591,0,0,1-1.712,31.729c-.1.839,1.22.833,1.316,0,2.2-18.834,1.682-37.819,1.688-56.74q.008-28.462,1.952-56.878,1.1-16,2.813-31.942c.091-.841-1.227-.834-1.316,0" transform="translate(101.891 89.778)" fill="#fe6705"/>
        <path id="Path_3677" data-name="Path 3677" d="M142.435,131.7c2.541,0,2.546-3.95,0-3.95s-2.546,3.95,0,3.95" transform="translate(101.219 92.015)" fill="#fe6705"/>
        <path id="Path_3678" data-name="Path 3678" d="M141.085,145.189c2.541,0,2.546-3.95,0-3.95s-2.546,3.95,0,3.95" transform="translate(100.246 101.731)" fill="#fe6705"/>
        <path id="Path_3679" data-name="Path 3679" d="M140.217,160.5c2.541,0,2.546-3.95,0-3.95s-2.546,3.95,0,3.95" transform="translate(99.621 112.757)" fill="#fe6705"/>
        <path id="Path_3680" data-name="Path 3680" d="M140.217,173.836c2.541,0,2.546-3.95,0-3.95s-2.546,3.95,0,3.95" transform="translate(99.621 122.365)" fill="#fe6705"/>
        <path id="Path_3681" data-name="Path 3681" d="M139.823,187.116c2.541,0,2.546-3.95,0-3.95s-2.546,3.95,0,3.95" transform="translate(99.337 131.93)" fill="#fe6705"/>
        <path id="Path_3682" data-name="Path 3682" d="M139.018,199.992c2.541,0,2.546-3.95,0-3.95s-2.546,3.95,0,3.95" transform="translate(98.757 141.205)" fill="#fe6705"/>
        <path id="Path_3683" data-name="Path 3683" d="M174.487,163.36a256.042,256.042,0,0,1,2.169-40q.764-5.739,1.8-11.442c.16-.888-1.323-1.27-1.483-.375a257.831,257.831,0,0,0-4.044,40.241q-.121,5.788.021,11.576c.021.907,1.56.91,1.54,0" transform="translate(124.516 79.975)" fill="#fe6705"/>
        <path id="Path_3684" data-name="Path 3684" d="M180.507,165.586A138.6,138.6,0,0,0,207.1,147.931q3.5-2.955,6.79-6.136c.611-.59-.322-1.521-.931-.931a137.159,137.159,0,0,1-25.223,19.246q-3.873,2.3-7.893,4.339c-.755.385-.089,1.521.664,1.137" transform="translate(129.298 101.325)" fill="#fe6705"/>
        <path id="Path_3685" data-name="Path 3685" d="M114.643,161.338a256.265,256.265,0,0,0-2.171-40q-.764-5.739-1.8-11.442c-.16-.888,1.323-1.27,1.483-.375a257.83,257.83,0,0,1,4.044,40.241q.121,5.788-.021,11.576c-.021.907-1.56.91-1.538,0" transform="translate(79.707 78.518)" fill="#fe6705"/>
        <path id="Path_3686" data-name="Path 3686" d="M120.756,163.563A138.667,138.667,0,0,1,94.164,145.91q-3.5-2.955-6.79-6.136c-.611-.59.322-1.521.931-.931a137.208,137.208,0,0,0,25.223,19.245q3.873,2.3,7.893,4.339c.755.385.089,1.521-.664,1.137" transform="translate(62.79 99.87)" fill="#fe6705"/>
        <path id="Path_3687" data-name="Path 3687" d="M216.665,149.434l-23.255,14.428c1.361,3.176,2.68,6.37,3.91,9.6a20.174,20.174,0,0,1,1.779,7.774c-.1,2.694-1.228,5.228-2.338,7.684-8.825,19.537-17.666,39.1-28.132,57.812a4.114,4.114,0,0,0-.76,2.591,4,4,0,0,0,1.182,1.916,114.375,114.375,0,0,0,11.125,10.5,674.439,674.439,0,0,0,42.9-64.786,22.325,22.325,0,0,0,2.935-6.64,20.749,20.749,0,0,0-.022-6.532,122.881,122.881,0,0,0-9.319-34.345" transform="translate(120.891 107.634)" fill="#ff9670"/>
        <path id="Path_3688" data-name="Path 3688" d="M168.028,245.084c1.147-.9,2.3-1.794,3.446-2.694a285.121,285.121,0,0,0,24.261-37.559c4.068-7.645,7.222-15.842,8.121-24.511.874-8.419-1.813-15.842-4.855-23.554-.114-.291-.206-.576-.289-.857l-5.3,3.287c1.359,3.177,2.678,6.37,3.909,9.6a20.128,20.128,0,0,1,1.779,7.774c-.1,2.692-1.228,5.228-2.338,7.684-8.825,19.535-17.664,39.1-28.132,57.812a4.109,4.109,0,0,0-.76,2.589,2.232,2.232,0,0,0,.158.427" transform="translate(120.891 112.298)" fill="#fc7f51"/>
        <path id="Path_3689" data-name="Path 3689" d="M150.276,114.252c6.508-7.745,12.192-16.454,20.186-22.8,1.34-1.065,3.3-2.131,4.681-1.108-1.116,3.4-5.446,5.858-4.775,9.374a7.646,7.646,0,0,0,1.913,3.265q2.157,2.575,4.316,5.152a5.228,5.228,0,0,1,1.163,1.877,3.855,3.855,0,0,1-.165,2.186c-1.59,4.913-7.119,7.356-11.634,10.139-9.508,5.859-16.1,15.175-21.244,24.813s-9.1,19.857-14.8,29.2c-5.319,8.72-12.087,16.556-19.31,23.912-3.761,3.829-7.748,7.605-12.666,9.95-3.785,1.8-9.224,2.279-11.519-1.137-1.247-1.856-1.085-4.242-.781-6.422a75.522,75.522,0,0,1,13.645-33.747c13.465-18.586,42.178-41.677,50.992-54.658" transform="translate(61.528 64.775)" fill="#ff9670"/>
        <path id="Path_3690" data-name="Path 3690" d="M131.444,113.4c5.021-6.179,8.261-13.635,12.881-20.165.046-.093.084-.188.132-.279a.441.441,0,0,1,.045.034c.368-.513.736-1.025,1.118-1.528-7.309,6.231-12.744,14.376-18.887,21.686a86.166,86.166,0,0,1-8.625,10.186c4.961-2.766,9.85-5.644,13.336-9.935" transform="translate(85.071 65.878)" fill="#fc7f51"/>
        <path id="Path_3691" data-name="Path 3691" d="M130.79,139.572c-9.3,11.591-22.465,34.466-40.224,30.354a8.115,8.115,0,0,1-3.97-2.107c-.377,1.755-.71,3.516-.956,5.292-.3,2.181-.466,4.566.779,6.422,2.295,3.416,7.736,2.94,11.519,1.137,4.92-2.343,8.906-6.121,12.666-9.95,7.223-7.356,13.991-15.192,19.312-23.912a168.811,168.811,0,0,0,8.257-15.858c-2.513,2.768-4.978,5.624-7.383,8.622" transform="translate(61.529 94.32)" fill="#fc7f51"/>
        <g id="Group_334" data-name="Group 334" transform="translate(383.665 226.803)" opacity="0.45">
          <g id="Group_333" data-name="Group 333">
            <g id="Group_332" data-name="Group 332" clip-path="url(#clip-path-4)">
              <path id="Path_3692" data-name="Path 3692" d="M243.308,141.756a1.318,1.318,0,0,0,0-2.634,1.318,1.318,0,0,0,0,2.634" transform="translate(-209.331 -126.597)" fill="#fff"/>
              <path id="Path_3693" data-name="Path 3693" d="M235.219,153.756a1.318,1.318,0,0,0,0-2.634,1.318,1.318,0,0,0,0,2.634" transform="translate(-215.158 -117.953)" fill="#fff"/>
              <path id="Path_3694" data-name="Path 3694" d="M247.353,153.621a1.318,1.318,0,0,0,0-2.634,1.318,1.318,0,0,0,0,2.634" transform="translate(-206.418 -118.051)" fill="#fff"/>
              <path id="Path_3695" data-name="Path 3695" d="M241.151,165.351a1.318,1.318,0,0,0,0-2.634,1.318,1.318,0,0,0,0,2.634" transform="translate(-210.885 -109.602)" fill="#fff"/>
              <path id="Path_3696" data-name="Path 3696" d="M255.443,163.868a1.318,1.318,0,0,0,0-2.634,1.318,1.318,0,0,0,0,2.634" transform="translate(-200.591 -110.67)" fill="#fff"/>
              <path id="Path_3697" data-name="Path 3697" d="M250.86,174.115a1.318,1.318,0,0,0,0-2.634,1.318,1.318,0,0,0,0,2.634" transform="translate(-203.893 -103.289)" fill="#fff"/>
              <path id="Path_3698" data-name="Path 3698" d="M237.645,175.733a1.318,1.318,0,0,0,0-2.634,1.318,1.318,0,0,0,0,2.634" transform="translate(-213.41 -102.124)" fill="#fff"/>
              <path id="Path_3699" data-name="Path 3699" d="M259.488,152.273a1.318,1.318,0,0,0,0-2.634,1.318,1.318,0,0,0,0,2.634" transform="translate(-197.677 -119.022)" fill="#fff"/>
              <path id="Path_3700" data-name="Path 3700" d="M256.791,142.026a1.318,1.318,0,0,0,0-2.634,1.318,1.318,0,0,0,0,2.634" transform="translate(-199.62 -126.402)" fill="#fff"/>
              <path id="Path_3701" data-name="Path 3701" d="M235.892,145.531a1.318,1.318,0,0,0,0-2.634,1.318,1.318,0,0,0,0,2.634" transform="translate(-214.673 -123.878)" fill="#fff"/>
              <path id="Path_3702" data-name="Path 3702" d="M231.039,136.9a1.318,1.318,0,0,0,0-2.634,1.318,1.318,0,0,0,0,2.634" transform="translate(-218.169 -130.093)" fill="#fff"/>
              <path id="Path_3703" data-name="Path 3703" d="M225.106,146.475a1.318,1.318,0,0,0,0-2.634,1.318,1.318,0,0,0,0,2.634" transform="translate(-222.442 -123.198)" fill="#fff"/>
              <path id="Path_3704" data-name="Path 3704" d="M224.3,156.318a1.318,1.318,0,0,0,0-2.634,1.318,1.318,0,0,0,0,2.634" transform="translate(-223.024 -116.108)" fill="#fff"/>
              <path id="Path_3705" data-name="Path 3705" d="M268.792,144.992a1.318,1.318,0,0,0,0-2.634,1.318,1.318,0,0,0,0,2.634" transform="translate(-190.977 -124.266)" fill="#fff"/>
              <path id="Path_3706" data-name="Path 3706" d="M270.139,134.475a1.318,1.318,0,0,0,0-2.634,1.318,1.318,0,0,0,0,2.634" transform="translate(-190.005 -131.841)" fill="#fff"/>
              <path id="Path_3707" data-name="Path 3707" d="M259.353,135.554a1.318,1.318,0,0,0,0-2.634,1.318,1.318,0,0,0,0,2.634" transform="translate(-197.774 -131.064)" fill="#fff"/>
              <path id="Path_3708" data-name="Path 3708" d="M268.657,158.34a1.318,1.318,0,0,0,0-2.634,1.318,1.318,0,0,0,0,2.634" transform="translate(-191.074 -114.652)" fill="#fff"/>
              <path id="Path_3709" data-name="Path 3709" d="M264.343,169.127a1.318,1.318,0,0,0,0-2.634,1.318,1.318,0,0,0,0,2.634" transform="translate(-194.181 -106.882)" fill="#fff"/>
              <path id="Path_3710" data-name="Path 3710" d="M260.3,177.621a1.318,1.318,0,0,0,0-2.634,1.318,1.318,0,0,0,0,2.634" transform="translate(-197.095 -100.764)" fill="#fff"/>
              <path id="Path_3711" data-name="Path 3711" d="M273.646,175.6a1.317,1.317,0,0,0,0-2.632,1.317,1.317,0,0,0,0,2.632" transform="translate(-187.48 -102.22)" fill="#fff"/>
              <path id="Path_3712" data-name="Path 3712" d="M276.343,166.7a1.318,1.318,0,0,0,0-2.634,1.318,1.318,0,0,0,0,2.634" transform="translate(-185.538 -108.63)" fill="#fff"/>
              <path id="Path_3713" data-name="Path 3713" d="M274.59,154.834a1.318,1.318,0,0,0,0-2.634,1.318,1.318,0,0,0,0,2.634" transform="translate(-186.8 -117.177)" fill="#fff"/>
            </g>
          </g>
        </g>
        <path id="Path_3714" data-name="Path 3714" d="M266.485,461.581q.674-20.772,3.416-41.808,2.753-21.09,7.568-42.3,4.756-20.961,11.49-41.891,6.82-21.116,15.615-42.038,8.753-20.816,19.422-41.294,1.321-2.537,2.673-5.066a1.873,1.873,0,0,0-1.406-2.746c-1.4-.265-2.324,2.109-2.973,3.327-7.315,13.7-14.562,26.04-20.593,40q-8.977,20.783-16.016,41.823-7.132,21.312-12.272,42.732-5.065,21.18-8.089,42.317-3.019,21.11-3.955,42.026-.116,2.583-.2,5.157a1.993,1.993,0,0,0,2.255,2.2c1.3-.058,3.022-1.2,3.062-2.444" transform="translate(188.112 176.052)" fill="#88b4ff"/>
        <path id="Path_3715" data-name="Path 3715" d="M296.021,262.619c1.977-8.479,3.554-16.413,8.331-23.692,1.906-2.9,6.021-5.952,9.085-7.588,1.43-.764,3.666-.955,4.24.561a3,3,0,0,1,.021,1.6,37.376,37.376,0,0,1-5.758,14.2c-4.521,6.264-10.64,9.284-15.919,14.925" transform="translate(213.217 166.21)" fill="#88b4ff"/>
        <path id="Path_3716" data-name="Path 3716" d="M298.811,270.51c-5.386-7.112-10.6-13.552-13.208-22.085-1.041-3.4-.747-8.644-.028-12.13.335-1.626,1.651-3.515,3.22-2.974a3.077,3.077,0,0,1,1.273,1.03,38.328,38.328,0,0,1,7.413,13.838c1.973,7.666.346,14.466,1.33,22.321" transform="translate(205.225 167.988)" fill="#88b4ff"/>
        <path id="Path_3717" data-name="Path 3717" d="M292.463,259.874c7.672-4.552,14.66-9.013,23.43-10.64,3.5-.652,8.674.23,12.056,1.335,1.578.516,3.306,2.039,2.592,3.537a3.093,3.093,0,0,1-1.166,1.149,38.308,38.308,0,0,1-14.583,5.808c-7.839,1.1-14.412-1.283-22.329-1.189" transform="translate(210.654 179.357)" fill="#88b4ff"/>
        <path id="Path_3718" data-name="Path 3718" d="M291.795,287.305c-5.828-7.7-11.476-14.669-14.3-23.9-1.127-3.685-.809-9.355-.031-13.129.363-1.758,1.787-3.8,3.485-3.217a3.33,3.33,0,0,1,1.38,1.115,41.458,41.458,0,0,1,8.022,14.975c2.137,8.3.373,15.658,1.44,24.16" transform="translate(199.348 177.875)" fill="#88b4ff"/>
        <path id="Path_3719" data-name="Path 3719" d="M284.865,275.224c8.3-4.927,15.866-9.754,25.359-11.517,3.788-.7,9.388.251,13.048,1.448,1.708.557,3.578,2.2,2.806,3.824a3.314,3.314,0,0,1-1.263,1.245,41.45,41.45,0,0,1-15.784,6.286c-8.484,1.19-15.6-1.388-24.166-1.287" transform="translate(205.182 189.77)" fill="#88b4ff"/>
        <path id="Path_3720" data-name="Path 3720" d="M285.744,311.443c-7.452-9.84-14.672-18.753-18.276-30.557-1.438-4.712-1.032-11.961-.038-16.785.464-2.25,2.285-4.862,4.456-4.113a4.218,4.218,0,0,1,1.762,1.424c4.373,5.252,8.553,12.529,10.258,19.145,2.73,10.609.477,20.017,1.839,30.886" transform="translate(191.977 187.169)" fill="#88b4ff"/>
        <path id="Path_3721" data-name="Path 3721" d="M277.583,296.832c10.616-6.3,20.284-12.47,32.419-14.724,4.843-.9,12,.318,16.683,1.849,2.183.714,4.574,2.816,3.587,4.891a4.255,4.255,0,0,1-1.615,1.59c-5.71,3.755-13.41,7.091-20.177,8.039-10.848,1.521-19.943-1.777-30.9-1.645" transform="translate(199.937 202.975)" fill="#88b4ff"/>
        <path id="Path_3722" data-name="Path 3722" d="M281.468,329.468c-8.257-9.174-16.207-17.444-20.8-28.9-1.832-4.572-2.04-11.83-1.457-16.721.27-2.281,1.863-5.039,4.091-4.476a4.239,4.239,0,0,1,1.877,1.271c4.8,4.862,9.582,11.758,11.839,18.207,3.619,10.339,2.171,19.905,4.449,30.619" transform="translate(186.497 201.171)" fill="#88b4ff"/>
        <path id="Path_3723" data-name="Path 3723" d="M271.971,316.763c10.045-7.173,19.155-14.141,31.056-17.414,4.75-1.306,11.985-.7,16.78.432,2.235.526,4.8,2.419,3.988,4.569a4.25,4.25,0,0,1-1.474,1.72c-5.371,4.225-12.761,8.2-19.424,9.718-10.681,2.432-20.022-.081-30.925.975" transform="translate(195.895 215.083)" fill="#88b4ff"/>
        <path id="Path_3724" data-name="Path 3724" d="M276.034,344.184c-7.143-7.043-13.991-13.365-18.271-22.438-1.708-3.619-2.228-9.5-1.992-13.492.11-1.863,1.268-4.177,3.1-3.829a3.458,3.458,0,0,1,1.584.939,43.082,43.082,0,0,1,10.487,14.2c3.435,8.211,2.723,16.042,5.09,24.622" transform="translate(184.187 219.245)" fill="#88b4ff"/>
        <path id="Path_3725" data-name="Path 3725" d="M267.513,335.049c7.8-6.307,14.855-12.4,24.349-15.632,3.79-1.29,9.689-1.146,13.633-.463,1.837.318,4.007,1.731,3.456,3.513a3.457,3.457,0,0,1-1.113,1.469,43.075,43.075,0,0,1-15.286,8.823c-8.546,2.491-16.246.9-25.039,2.29" transform="translate(192.684 229.366)" fill="#88b4ff"/>
        <path id="Path_3726" data-name="Path 3726" d="M272.833,357.4c-6.391-5.4-12.491-10.227-16.628-17.5-1.652-2.9-2.458-7.758-2.517-11.1-.028-1.557.788-3.554,2.336-3.382a2.872,2.872,0,0,1,1.378.681,35.944,35.944,0,0,1,9.627,11.142c3.382,6.611,3.289,13.171,5.8,20.158" transform="translate(182.725 234.386)" fill="#88b4ff"/>
        <path id="Path_3727" data-name="Path 3727" d="M264.843,351.155c6.088-5.742,11.567-11.261,19.26-14.555,3.071-1.314,7.986-1.571,11.311-1.252,1.55.148,3.444,1.184,3.1,2.7a2.875,2.875,0,0,1-.833,1.294,35.939,35.939,0,0,1-12.154,8.314c-6.95,2.617-13.456,1.786-20.683,3.5" transform="translate(190.76 241.454)" fill="#88b4ff"/>
        <path id="Path_3728" data-name="Path 3728" d="M270.428,368.156c-5.636-3.926-10.987-7.4-14.925-13.028-1.571-2.245-2.6-6.15-2.906-8.875-.141-1.27.373-2.964,1.651-2.942a2.354,2.354,0,0,1,1.177.451,29.483,29.483,0,0,1,8.718,8.367c3.269,5.144,3.7,10.509,6.284,16.026" transform="translate(181.924 247.28)" fill="#88b4ff"/>
        <path id="Path_3729" data-name="Path 3729" d="M263.011,364.529c4.535-5.157,8.589-10.086,14.622-13.365,2.408-1.309,6.406-1.894,9.145-1.889,1.278,0,2.905.7,2.74,1.97a2.384,2.384,0,0,1-.581,1.12,29.5,29.5,0,0,1-9.295,7.722c-5.479,2.67-10.858,2.489-16.632,4.442" transform="translate(189.441 251.575)" fill="#88b4ff"/>
        <path id="Path_3730" data-name="Path 3730" d="M331.513,330.3c-.01-.241-.021-.485-.033-.728a177.645,177.645,0,0,1,32.333-23.428c21.486-12.229,45.107-20.377,69.16-26.091a377.586,377.586,0,0,1,62.425-9.408c-12.109,11.421-18.457,18.233-27.626,27.464a126.5,126.5,0,0,0-12.983,15.546A202.553,202.553,0,0,1,433.5,306.6l17.327,12.826c-9.969,15.087-18.1,31.631-28.2,46.735q-2.831-1.321-5.6-2.771c-4.9-2.577-9.794-5.517-15.276-6.322A197.212,197.212,0,0,0,412.8,379.343c-28.25,33.564-76.317,57.144-119.518,58.938-7.941-15.558-5.713-34.461-.057-50.987A135.833,135.833,0,0,1,309.15,355.3a140.4,140.4,0,0,1,11.122-14.33c3.172,5.169,6.4,10.3,9.714,15.381a130.78,130.78,0,0,0,1.528-26.054" transform="translate(207.527 194.937)" fill="#a694ea"/>
        <path id="Path_3731" data-name="Path 3731" d="M432.974,279.877a377.738,377.738,0,0,1,57.075-9c-9.389,2.369-17.989,7.072-26.3,11.971-9.616,5.668-19.372,11.089-29.186,16.408-33.466,18.132-62.675,44.261-89.64,71.345-20.361,20.449-38.292,44.02-47.963,67.3-1.23.084-2.457.158-3.68.21-7.941-15.56-5.713-34.462-.057-50.989a135.867,135.867,0,0,1,15.926-31.994,140.783,140.783,0,0,1,11.122-14.33q4.756,7.754,9.714,15.383a130.774,130.774,0,0,0,1.528-26.055c-.01-.241-.021-.485-.033-.728a177.725,177.725,0,0,1,32.333-23.428c21.486-12.228,45.107-20.373,69.16-26.091" transform="translate(207.527 195.109)" fill="#8969e2"/>
        <path id="Path_3732" data-name="Path 3732" d="M294.791,418.046q10.66-15.839,22.642-30.733,12-14.91,25.249-28.76,13.23-13.831,27.6-26.508,14.321-12.626,29.677-24.017,15.374-11.4,31.693-21.448,2.02-1.246,4.056-2.469a.778.778,0,0,1,.815,1.325q-16.342,9.826-31.8,21.023-15.418,11.171-29.845,23.633t-27.77,26.117q-13.271,13.586-25.364,28.262-12.1,14.7-22.921,30.4-1.347,1.953-2.672,3.926c-.556.824-1.922.081-1.363-.75" transform="translate(212.236 204.555)" fill="#fff"/>
        <path id="Path_3733" data-name="Path 3733" d="M306.3,348.965a133.151,133.151,0,0,1,31.978-5.309q4.542-.193,9.09-.069c1,.026,1.025,1.581.021,1.555a131.279,131.279,0,0,0-31.853,3.043q-4.441.983-8.8,2.273a.778.778,0,0,1-.434-1.493" transform="translate(220.23 247.443)" fill="#fff"/>
        <path id="Path_3734" data-name="Path 3734" d="M340.7,314.615a132.242,132.242,0,0,1,31.034-8.851q4.562-.715,9.167-1.118c1-.088,1.015,1.467.021,1.555a131.253,131.253,0,0,0-31.361,6.675q-4.268,1.471-8.428,3.232a.782.782,0,0,1-.963-.53.8.8,0,0,1,.53-.963" transform="translate(244.994 219.427)" fill="#fff"/>
        <path id="Path_3735" data-name="Path 3735" d="M320.134,350.911q1.241-9.79,3.315-19.448,2.082-9.689,5-19.178,1.631-5.311,3.516-10.538a.8.8,0,0,1,.944-.566.784.784,0,0,1,.564.944q-3.347,9.284-5.894,18.828-2.552,9.576-4.273,19.35-.962,5.473-1.66,10.986a.783.783,0,0,1-.944.566.8.8,0,0,1-.564-.944" transform="translate(230.578 216.917)" fill="#fff"/>
        <path id="Path_3736" data-name="Path 3736" d="M312.655,395.729q9.689-8.11,20.337-15.391,10.678-7.3,22.24-13.709,11.429-6.338,23.645-11.765,12.337-5.463,25.384-9.955,12.985-4.467,26.589-7.927,1.685-.428,3.38-.841a1.14,1.14,0,0,0,.676-1.75c-.446-.741-1.9-.2-2.713,0-9.176,2.236-17.705,3.95-26.479,6.874q-13.059,4.351-25.45,9.685-12.551,5.4-24.344,11.751-11.653,6.286-22.46,13.48t-20.655,15.237q-1.215.993-2.417,2a1.212,1.212,0,0,0-.083,1.913,2.011,2.011,0,0,0,2.348.4" transform="translate(223.198 240.582)" fill="#5595f2"/>
        <path id="Path_3737" data-name="Path 3737" d="M379.386,337.578c4.645-2.539,8.88-5.039,14.115-5.823a16.718,16.718,0,0,1,7.122,1.044c.926.337,1.918,1.275,1.464,2.149a1.821,1.821,0,0,1-.716.657,22.713,22.713,0,0,1-8.768,3.143c-4.672.489-8.521-1.061-13.217-1.17" transform="translate(273.263 238.896)" fill="#5595f2"/>
        <path id="Path_3738" data-name="Path 3738" d="M375.612,344.5c1.042-5.323,1.848-10.3,4.658-14.937a17.177,17.177,0,0,1,5.489-4.927c.872-.506,2.26-.676,2.653.255a1.878,1.878,0,0,1,.048,1,23.314,23.314,0,0,1-3.269,8.966c-2.677,4-6.418,6.018-9.58,9.647" transform="translate(270.545 233.532)" fill="#5595f2"/>
        <path id="Path_3739" data-name="Path 3739" d="M375.2,335.943c5.173,1.634,10.026,2.993,14.318,6.31a17.126,17.126,0,0,1,4.278,6.007c.406.924.418,2.322-.55,2.606a1.854,1.854,0,0,1-.994-.064,23.3,23.3,0,0,1-8.543-4.256c-3.674-3.109-5.257-7.055-8.508-10.6" transform="translate(270.25 241.972)" fill="#5595f2"/>
        <path id="Path_3740" data-name="Path 3740" d="M365.545,348.087c1.128-5.761,2-11.146,5.044-16.165a18.558,18.558,0,0,1,5.938-5.335c.944-.547,2.448-.731,2.871.277a2.019,2.019,0,0,1,.053,1.077,25.187,25.187,0,0,1-3.539,9.7c-2.9,4.332-6.947,6.515-10.368,10.442" transform="translate(263.294 234.913)" fill="#5595f2"/>
        <path id="Path_3741" data-name="Path 3741" d="M365.335,338.567c5.6,1.768,10.85,3.239,15.5,6.83a18.551,18.551,0,0,1,4.631,6.5c.439,1,.452,2.515-.6,2.821a2.014,2.014,0,0,1-1.075-.067,25.249,25.249,0,0,1-9.247-4.607c-3.977-3.365-5.691-7.636-9.209-11.478" transform="translate(263.143 243.862)" fill="#5595f2"/>
        <path id="Path_3742" data-name="Path 3742" d="M353.573,354.984c1.442-7.365,2.556-14.249,6.448-20.667,1.552-2.561,5-5.314,7.593-6.817,1.208-.7,3.129-.934,3.669.353a2.588,2.588,0,0,1,.069,1.376,32.245,32.245,0,0,1-4.523,12.407c-3.7,5.538-8.882,8.328-13.256,13.349" transform="translate(254.671 235.479)" fill="#5595f2"/>
        <path id="Path_3743" data-name="Path 3743" d="M353.211,343.465c7.156,2.26,13.872,4.142,19.811,8.73,2.371,1.83,4.719,5.569,5.921,8.312.561,1.278.576,3.213-.764,3.607a2.588,2.588,0,0,1-1.374-.088,32.254,32.254,0,0,1-11.82-5.89c-5.085-4.3-7.275-9.761-11.774-14.672" transform="translate(254.41 247.39)" fill="#5595f2"/>
        <path id="Path_3744" data-name="Path 3744" d="M342.836,360.488c.814-7.461,1.34-14.414,4.674-21.139,1.331-2.684,4.536-5.718,6.99-7.437,1.144-.8,3.04-1.2,3.687.041a2.573,2.573,0,0,1,.184,1.366,32.213,32.213,0,0,1-3.456,12.746c-3.22,5.83-8.144,9.049-12.078,14.423" transform="translate(246.937 238.53)" fill="#5595f2"/>
        <path id="Path_3745" data-name="Path 3745" d="M342.494,348.468c7.322,1.646,14.173,2.954,20.478,7.022,2.517,1.622,5.173,5.151,6.6,7.781.667,1.227.846,3.155-.456,3.659a2.58,2.58,0,0,1-1.378.029,32.264,32.264,0,0,1-12.276-4.868c-5.431-3.855-8.075-9.109-12.973-13.623" transform="translate(246.691 250.994)" fill="#5595f2"/>
        <path id="Path_3746" data-name="Path 3746" d="M332.371,364.135c.3-6.091.389-11.758,2.768-17.375a19.314,19.314,0,0,1,5.309-6.37c.889-.705,2.408-1.116,2.993-.145a2.094,2.094,0,0,1,.215,1.1,26.192,26.192,0,0,1-2.186,10.507c-2.329,4.886-6.167,7.734-9.1,12.284" transform="translate(239.399 244.658)" fill="#5595f2"/>
        <path id="Path_3747" data-name="Path 3747" d="M332.106,354.118c6.019.98,11.639,1.708,16.953,4.7a19.276,19.276,0,0,1,5.732,5.993c.6.962.841,2.517-.191,2.99a2.1,2.1,0,0,1-1.117.089,26.158,26.158,0,0,1-10.194-3.353c-4.591-2.866-6.991-7-11.184-10.423" transform="translate(239.208 255.063)" fill="#5595f2"/>
        <path id="Path_3748" data-name="Path 3748" d="M323.847,368.132c-.141-5.087-.425-9.806,1.2-14.629a16.082,16.082,0,0,1,4.012-5.637c.695-.643,1.932-1.084,2.481-.313a1.753,1.753,0,0,1,.248.9,21.852,21.852,0,0,1-1.149,8.88c-1.627,4.211-4.638,6.826-6.786,10.8" transform="translate(233.179 250.039)" fill="#5595f2"/>
        <path id="Path_3749" data-name="Path 3749" d="M323.594,359.549c5.07.434,9.792.681,14.4,2.833A16.1,16.1,0,0,1,343.147,367c.561.764.86,2.042.031,2.5a1.765,1.765,0,0,1-.922.146,21.865,21.865,0,0,1-8.694-2.142c-4-2.09-6.262-5.376-9.967-7.958" transform="translate(233.077 258.975)" fill="#5595f2"/>
        <path id="Path_3750" data-name="Path 3750" d="M317.085,371.47c-.5-4.146-1.1-7.98-.141-12.044a13.17,13.17,0,0,1,2.845-4.913c.518-.58,1.495-1.034,2-.446a1.44,1.44,0,0,1,.272.717,17.923,17.923,0,0,1-.26,7.342c-1.006,3.566-3.267,5.933-4.719,9.343" transform="translate(227.921 254.829)" fill="#5595f2"/>
        <path id="Path_3751" data-name="Path 3751" d="M316.66,364.262c4.175-.034,8.053-.193,11.983,1.213a13.23,13.23,0,0,1,4.562,3.38c.516.581.858,1.6.217,2.04a1.45,1.45,0,0,1-.743.191A17.944,17.944,0,0,1,325.413,370c-3.43-1.4-5.529-3.915-8.753-5.741" transform="translate(228.083 262.353)" fill="#5595f2"/>
        <path id="Path_3752" data-name="Path 3752" d="M266.18,111.672a21.539,21.539,0,0,1-.95,8.878c-.263.807,1.008,1.153,1.27.349a22.488,22.488,0,0,0,1-9.228.68.68,0,0,0-.657-.659.663.663,0,0,0-.659.659" transform="translate(191.013 79.96)" fill="#606060"/>
        <path id="Path_3753" data-name="Path 3753" d="M237.706,176.384c.349,4.569.671,9.333-1.055,13.578-1.5,3.683-4.519,7-4.309,10.968a1.28,1.28,0,0,0,.239.788,1.4,1.4,0,0,0,.979.341c10.37.819,20.779,1.639,31.163,1.017,4.292-.258,8.565-.762,12.851-1.11a176.24,176.24,0,0,1,32,.323,102.488,102.488,0,0,1-4.349-29.843" transform="translate(167.343 124.209)" fill="#ff9670"/>
        <path id="Path_3754" data-name="Path 3754" d="M235.386,186.722c10.286.268,21.111-.618,31.383-1.159,12.006-.638,24.562-1.605,35.947-5.672.181-.064.365-.1.547-.153q-.248-3.641-.243-7.292L235.5,176.383a40.114,40.114,0,0,1-.119,10.339" transform="translate(169.543 124.208)" fill="#fc7f51"/>
        <path id="Path_3755" data-name="Path 3755" d="M259.382,368.918l.676-30.881c-3.387-.194-6.769-.428-10.17-.523-2.873-.079-5.618.112-8.379-.131,2.235,15.6,4.166,30.513,4.2,35.656.046,6.609-3.136,14.641-3.136,14.641,17.753,8.436,17.444-4.148,17.1-9.253-.213-3.164-.363-6.336-.294-9.51" transform="translate(173.953 243.01)" fill="#ff9670"/>
        <path id="Path_3756" data-name="Path 3756" d="M245.54,361.5a44.2,44.2,0,0,0-5.035,25.827,7.029,7.029,0,0,0,.874,3.131,4.5,4.5,0,0,0,1.806,1.428,20.041,20.041,0,0,0,19.133-.461,3.482,3.482,0,0,0,1.354-1.154,5.5,5.5,0,0,0,.592-2.3,68.679,68.679,0,0,0-.136-15.224" transform="translate(173.05 260.377)" fill="#e59900"/>
        <path id="Path_3757" data-name="Path 3757" d="M245.846,361.212c3.563-3.112,8.56-3.853,12.147-.791,3.532,3.016,4.932,8.72,6.09,13.981.8,3.616,1.428,8.08-.7,10.649a6.572,6.572,0,0,1-2.84,1.835,22.043,22.043,0,0,1-12.057,1.165c-3.293-.612-6.971-2.6-7.81-6.757a15.4,15.4,0,0,1,.673-6.943,73.914,73.914,0,0,1,4.5-13.138" transform="translate(173.229 258.195)" fill="#feb405"/>
        <path id="Path_3758" data-name="Path 3758" d="M244.322,370.752c.778,0,.779-1.381,0-1.381s-.783,1.381,0,1.381" transform="translate(175.557 266.05)" fill="#fff"/>
        <path id="Path_3759" data-name="Path 3759" d="M251.256,370.6c.779,0,.781-1.381,0-1.381s-.781,1.381,0,1.381" transform="translate(180.553 265.937)" fill="#fff"/>
        <path id="Path_3760" data-name="Path 3760" d="M245.944,370.784a27.3,27.3,0,0,1,6.479-.107c.325.034.606-.341.606-.69a.667.667,0,0,0-.606-.692,27.3,27.3,0,0,0-6.479.107.673.673,0,0,0-.606.692c0,.339.279.735.606.69" transform="translate(176.711 265.892)" fill="#fff"/>
        <path id="Path_3761" data-name="Path 3761" d="M244.35,367.039c.779,0,.781-1.381,0-1.381s-.781,1.381,0,1.381" transform="translate(175.578 263.375)" fill="#fff"/>
        <path id="Path_3762" data-name="Path 3762" d="M251.286,366.882c.779,0,.781-1.381,0-1.381s-.781,1.381,0,1.381" transform="translate(180.574 263.262)" fill="#fff"/>
        <path id="Path_3763" data-name="Path 3763" d="M245.974,367.07a27.3,27.3,0,0,1,6.479-.107c.325.034.606-.341.606-.692a.665.665,0,0,0-.606-.69,27.3,27.3,0,0,0-6.479.107.673.673,0,0,0-.606.69c0,.341.279.736.606.692" transform="translate(176.733 263.217)" fill="#fff"/>
        <path id="Path_3764" data-name="Path 3764" d="M244.35,363.251c.779,0,.781-1.381,0-1.381s-.781,1.381,0,1.381" transform="translate(175.578 260.647)" fill="#fff"/>
        <path id="Path_3765" data-name="Path 3765" d="M251.286,363.094c.779,0,.781-1.381,0-1.381s-.781,1.381,0,1.381" transform="translate(180.574 260.534)" fill="#fff"/>
        <path id="Path_3766" data-name="Path 3766" d="M245.974,363.282a27.3,27.3,0,0,1,6.479-.107c.325.034.606-.341.606-.69a.667.667,0,0,0-.606-.692,27.3,27.3,0,0,0-6.479.107.672.672,0,0,0-.606.69c0,.341.279.736.606.692" transform="translate(176.733 260.489)" fill="#fff"/>
        <path id="Path_3767" data-name="Path 3767" d="M287,369.784l-4.12-30.612c3.344-.569,6.68-1.182,10.05-1.655,2.845-.4,5.594-.516,8.311-1.065-.478,15.753-.733,30.788-.2,35.9.691,6.573,4.751,14.2,4.751,14.2-16.7,10.366-17.8-2.174-18.027-7.285-.141-3.169-.346-6.338-.769-9.484" transform="translate(203.751 242.339)" fill="#ff9670"/>
        <path id="Path_3768" data-name="Path 3768" d="M301.645,360.616a44.2,44.2,0,0,1,7.887,25.1,7.025,7.025,0,0,1-.52,3.21,4.455,4.455,0,0,1-1.636,1.619,20.037,20.037,0,0,1-19.064,1.679,3.473,3.473,0,0,1-1.474-1,5.473,5.473,0,0,1-.843-2.216,68.486,68.486,0,0,1-1.565-15.145" transform="translate(204.867 259.744)" fill="#e59900"/>
        <path id="Path_3769" data-name="Path 3769" d="M301.059,360.067c-3.888-2.694-8.937-2.875-12.161.569-3.17,3.391-3.926,9.217-4.488,14.574-.389,3.681-.518,8.189,1.88,10.5a6.573,6.573,0,0,0,3.026,1.509,22.054,22.054,0,0,0,12.114-.189c3.2-.975,6.637-3.361,7.007-7.588a15.393,15.393,0,0,0-1.445-6.824,73.746,73.746,0,0,0-5.933-12.553" transform="translate(204.696 257.894)" fill="#feb405"/>
        <path id="Path_3770" data-name="Path 3770" d="M294.939,369.9c-.774.088-.929-1.285-.155-1.373s.931,1.285.155,1.373" transform="translate(211.96 265.438)" fill="#fff"/>
        <path id="Path_3771" data-name="Path 3771" d="M288.029,370.518c-.774.088-.931-1.285-.155-1.373s.931,1.285.155,1.373" transform="translate(206.982 265.884)" fill="#fff"/>
        <path id="Path_3772" data-name="Path 3772" d="M296.035,370.008a27.342,27.342,0,0,0-6.449.618c-.32.07-.64-.272-.68-.619a.666.666,0,0,1,.525-.753,27.35,27.35,0,0,1,6.449-.618.672.672,0,0,1,.679.619c.038.337-.194.762-.525.753" transform="translate(208.089 265.514)" fill="#fff"/>
        <path id="Path_3773" data-name="Path 3773" d="M294.495,366.212c-.774.088-.929-1.285-.155-1.373s.931,1.285.155,1.373" transform="translate(211.64 262.783)" fill="#fff"/>
        <path id="Path_3774" data-name="Path 3774" d="M287.585,366.831c-.774.088-.931-1.285-.155-1.373s.931,1.285.155,1.373" transform="translate(206.663 263.228)" fill="#fff"/>
        <path id="Path_3775" data-name="Path 3775" d="M295.591,366.321a27.344,27.344,0,0,0-6.449.618c-.32.069-.64-.272-.68-.619a.666.666,0,0,1,.525-.754,27.353,27.353,0,0,1,6.449-.618.672.672,0,0,1,.679.619c.038.335-.194.76-.525.754" transform="translate(207.769 262.859)" fill="#fff"/>
        <path id="Path_3776" data-name="Path 3776" d="M294.072,362.449c-.774.088-.931-1.285-.155-1.373s.931,1.285.155,1.373" transform="translate(211.335 260.072)" fill="#fff"/>
        <path id="Path_3777" data-name="Path 3777" d="M287.162,363.067c-.774.088-.931-1.285-.155-1.373s.931,1.285.155,1.373" transform="translate(206.358 260.518)" fill="#fff"/>
        <path id="Path_3778" data-name="Path 3778" d="M295.168,362.557a27.343,27.343,0,0,0-6.449.618c-.32.069-.64-.272-.68-.619a.667.667,0,0,1,.525-.753,27.347,27.347,0,0,1,6.449-.618.672.672,0,0,1,.68.619c.038.337-.194.76-.525.754" transform="translate(207.464 260.147)" fill="#fff"/>
        <path id="Path_3779" data-name="Path 3779" d="M247.423,166.186c-3.391,7.179-8.531,19.437-11.364,26.854-1.108,2.9-2.188,5.961-1.756,9.033a18.57,18.57,0,0,0,2.675,6.484,339.763,339.763,0,0,0,29.592,43.329,4.246,4.246,0,0,1,1.259,2.7,4.2,4.2,0,0,1-.919,2.063q-2.771,4.041-5.543,8.084c-.318.464-.721.977-1.283.994a1.834,1.834,0,0,1-1.306-.831l-26.547-30.9c-6.5-7.564-13.041-15.2-17.863-23.922a20.745,20.745,0,0,1-2.954-8.326,22.6,22.6,0,0,1,.833-6.774,178,178,0,0,1,18.636-47.476" transform="translate(152.252 106.235)" fill="#ff9670"/>
        <path id="Path_3780" data-name="Path 3780" d="M226.25,194.334c-.434-3.072.649-6.134,1.756-9.033,2.833-7.416,7.973-19.673,11.364-26.854l-.187-.212a8.98,8.98,0,0,1-2.322,1.994c-6.444,3.908-9.5,12.7-12.033,19.408-3.52,9.336-2.787,16.781,1.128,25.971,2.709,6.358,5.737,12.725,9.023,19,6.874,9.9,13.847,19.742,19.886,30.127q2-2.911,3.993-5.821a4.212,4.212,0,0,0,.919-2.064,4.255,4.255,0,0,0-1.259-2.7,339.729,339.729,0,0,1-29.592-43.325,18.591,18.591,0,0,1-2.675-6.485" transform="translate(160.305 113.974)" fill="#fc7f51"/>
        <path id="Path_3781" data-name="Path 3781" d="M242.742,183.88c-9.243,9.274-12.252,22.893-14.853,35.727-2.359,11.643-4.729,23.389-4.643,35.267.077,10.671,2.137,21.211,3.969,31.724a772.519,772.519,0,0,1,11.166,110.5c.795,27.6.507,56.792,14.516,80.588a5.661,5.661,0,0,0,2.462,2.606,5.864,5.864,0,0,0,2.816.169q7.078-.728,14.158-1.457a2.034,2.034,0,0,0,2.341-2.281c5.044-70.757-2.6-142.177,5.828-212.611q17.854,106.932,43.286,212.415a3.2,3.2,0,0,0,3.062,2.439,47.006,47.006,0,0,0,18.521-2.909,2.546,2.546,0,0,0,1.569-1.971c2.309-14.891.279-30.119-1.639-45.088q-12.205-95.279-18.123-191.224c-1.06-17.191-2.214-35.211-11.29-49.848a3.431,3.431,0,0,0-1.481-1.516,3.7,3.7,0,0,0-2.374.179c-10.365,3.066-21.421,2.3-32.2,1.516-12.364-.9-24.727-3.315-37.091-4.218" transform="translate(160.797 132.445)" fill="#4c16c4"/>
        <path id="Path_3782" data-name="Path 3782" d="M262.665,255.511c-1.1,7.927-2.427,15.825-3.3,23.786-2.309,21.177-2.9,42.472-3.217,63.757-.3,20.206.356,40.948-2.338,61.013-1.233,9.185-4.185,18.519-10.482,24.83l.372-.034,14.158-1.457a2.036,2.036,0,0,0,2.341-2.283c4.02-56.394,0-113.21,2.462-169.612" transform="translate(175.267 184.039)" fill="#260799"/>
        <path id="Path_3783" data-name="Path 3783" d="M235.069,233.159c3.547-14.136,6.857-35.968,23.6-39.916,8.027-1.894,16.945-.3,25.145-.864,9.453-.65,18.782-1.719,27.4-5.591-10.126,2.79-20.881,2.078-31.376,1.311-12.364-.9-24.727-3.315-37.089-4.22-9.245,9.276-12.252,22.893-14.853,35.728-2.36,11.643-4.729,23.387-4.643,35.267.077,10.669,2.135,21.211,3.969,31.722.213,1.225.4,2.457.607,3.681.676-19.324,2.575-38.507,7.246-57.12" transform="translate(160.798 132.445)" fill="#260799"/>
        <path id="Path_3784" data-name="Path 3784" d="M300.488,379.092q-8.046-62.81-13.342-125.931c.15,7.294.179,14.591-.2,21.906-1.046,20.081-2.309,40.086-.771,60.177,1.555,20.31,4.868,40.435,6.245,60.762.774,11.438,1.689,23.425-4.161,32.883a42.822,42.822,0,0,0,12.3-2.739,2.546,2.546,0,0,0,1.569-1.97c2.309-14.891.279-30.119-1.639-45.089" transform="translate(205.609 182.346)" fill="#260799"/>
        <g id="Group_337" data-name="Group 337" transform="translate(386.072 320.431)" opacity="0.75">
          <g id="Group_336" data-name="Group 336">
            <g id="Group_335" data-name="Group 335" clip-path="url(#clip-path-5)">
              <path id="Path_3785" data-name="Path 3785" d="M228.535,209.313a35.833,35.833,0,0,0,11.283-21.519c.112-.827-1.156-1.187-1.27-.349A34.73,34.73,0,0,1,227.6,208.382c-.628.573.306,1.5.931.931" transform="translate(-222.283 -185.762)" fill="#fff"/>
              <path id="Path_3786" data-name="Path 3786" d="M274.009,189.1a32.307,32.307,0,0,0,13.379,21.607c.7.487,1.354-.654.664-1.135a31.056,31.056,0,0,1-12.773-20.821c-.122-.836-1.39-.48-1.27.349" transform="translate(-188.715 -184.818)" fill="#fff"/>
              <path id="Path_3787" data-name="Path 3787" d="M235.076,186.925q-.16,1.613-.322,3.226a.658.658,0,0,0,.657.657.676.676,0,0,0,.659-.657q.16-1.613.322-3.226a.661.661,0,0,0-.657-.659.676.676,0,0,0-.659.659" transform="translate(-216.985 -186.268)" fill="#fff"/>
              <path id="Path_3788" data-name="Path 3788" d="M238.445,186.868a16,16,0,0,0-1.325,5.661.658.658,0,1,0,1.316,0,14.265,14.265,0,0,1,1.146-5,.678.678,0,0,0-.237-.9.661.661,0,0,0-.9.236" transform="translate(-215.28 -186.065)" fill="#fff"/>
              <path id="Path_3789" data-name="Path 3789" d="M240.927,187.5q-.408,2.74-.814,5.483a.679.679,0,0,0,.461.809.66.66,0,0,0,.809-.459q.408-2.74.814-5.481a.68.68,0,0,0-.459-.81.662.662,0,0,0-.81.459" transform="translate(-213.131 -185.725)" fill="#fff"/>
              <path id="Path_3790" data-name="Path 3790" d="M242.919,188.059a16.958,16.958,0,0,0-.184,3.723.658.658,0,1,0,1.316,0,16.39,16.39,0,0,1-.021-1.744c.012-.286.033-.569.06-.853.014-.136.028-.272.045-.408,0-.014.027-.208.012-.1l.041-.272a.674.674,0,0,0-.459-.809.665.665,0,0,0-.81.459" transform="translate(-211.259 -185.319)" fill="#fff"/>
              <path id="Path_3791" data-name="Path 3791" d="M244.778,188.238q.08,2.1.162,4.192a.658.658,0,1,0,1.316,0q-.08-2.1-.162-4.192a.658.658,0,1,0-1.316,0" transform="translate(-209.764 -185.322)" fill="#fff"/>
              <path id="Path_3792" data-name="Path 3792" d="M247.884,188.153l-.645,4.032a.676.676,0,0,0,.459.809.666.666,0,0,0,.81-.459l.645-4.031a.675.675,0,0,0-.459-.81.666.666,0,0,0-.81.459" transform="translate(-207.999 -185.251)" fill="#fff"/>
              <path id="Path_3793" data-name="Path 3793" d="M249.929,188.145a27.088,27.088,0,0,0-.055,5.808.679.679,0,0,0,.659.659.665.665,0,0,0,.659-.659,27.088,27.088,0,0,1,.053-5.808.662.662,0,0,0-.657-.659.675.675,0,0,0-.659.659" transform="translate(-206.186 -185.389)" fill="#fff"/>
              <path id="Path_3794" data-name="Path 3794" d="M252.644,188.705a42.667,42.667,0,0,0-.162,5.646c.033.843,1.349.846,1.318,0a42.371,42.371,0,0,1,.16-5.646.663.663,0,0,0-.657-.657.672.672,0,0,0-.659.657" transform="translate(-204.236 -184.984)" fill="#fff"/>
              <path id="Path_3795" data-name="Path 3795" d="M254.825,188.977q.119,2.986.239,5.969c.034.845,1.35.85,1.316,0q-.119-2.983-.239-5.969c-.033-.845-1.35-.848-1.316,0" transform="translate(-202.527 -184.772)" fill="#fff"/>
              <path id="Path_3796" data-name="Path 3796" d="M257.927,189.082a30.922,30.922,0,0,0,.143,4.839.677.677,0,0,0,.659.657.66.66,0,0,0,.657-.657,30.929,30.929,0,0,1-.143-4.839.658.658,0,1,0-1.316,0" transform="translate(-200.32 -184.714)" fill="#fff"/>
              <path id="Path_3797" data-name="Path 3797" d="M260.462,189.269a33.706,33.706,0,0,0,.12,5,.676.676,0,0,0,.659.659.662.662,0,0,0,.657-.659,33.7,33.7,0,0,1-.12-5,.658.658,0,1,0-1.316,0" transform="translate(-198.497 -184.579)" fill="#fff"/>
              <path id="Path_3798" data-name="Path 3798" d="M262.594,188.79v5.161a.658.658,0,0,0,1.316,0V188.79a.658.658,0,0,0-1.316,0" transform="translate(-196.931 -184.907)" fill="#fff"/>
              <path id="Path_3799" data-name="Path 3799" d="M264.854,188.987a47.5,47.5,0,0,0,.59,5.668.665.665,0,0,0,.81.461.676.676,0,0,0,.459-.81,44.868,44.868,0,0,1-.544-5.319.658.658,0,1,0-1.316,0" transform="translate(-195.303 -184.783)" fill="#fff"/>
              <path id="Path_3800" data-name="Path 3800" d="M267.116,189.724a26.512,26.512,0,0,0,1.435,4.521.682.682,0,0,0,.81.461.664.664,0,0,0,.459-.81,26.556,26.556,0,0,1-1.435-4.521.658.658,0,1,0-1.27.349" transform="translate(-193.686 -184.376)" fill="#fff"/>
              <path id="Path_3801" data-name="Path 3801" d="M269.657,188.871a48.749,48.749,0,0,1,1.264,5.973.663.663,0,0,0,.81.459.676.676,0,0,0,.459-.81,48.816,48.816,0,0,0-1.264-5.973.659.659,0,0,0-1.27.351" transform="translate(-191.863 -184.978)" fill="#fff"/>
              <path id="Path_3802" data-name="Path 3802" d="M272.531,188.6a14.918,14.918,0,0,0,1.218,5.814.662.662,0,0,0,.9.237.675.675,0,0,0,.236-.9,13.309,13.309,0,0,1-1.039-5.15.658.658,0,0,0-1.316,0" transform="translate(-189.774 -185.042)" fill="#fff"/>
              <path id="Path_3803" data-name="Path 3803" d="M275.478,187.847l1.559,3.891a.677.677,0,0,0,.81.461.665.665,0,0,0,.459-.81l-1.559-3.891a.676.676,0,0,0-.81-.461.665.665,0,0,0-.459.81" transform="translate(-187.677 -185.733)" fill="#fff"/>
              <path id="Path_3804" data-name="Path 3804" d="M257.442,194.748a161.479,161.479,0,0,1,.041,31.822.636.636,0,0,0,.327.569,4.994,4.994,0,0,0,5.563-1.1c1.641-1.593,2.217-3.936,2.482-6.129a46.691,46.691,0,0,0-.029-8.379q-.25-4.219-.664-8.426-.472-4.779-1.156-9.534c-.119-.834-1.388-.48-1.27.351q1.352,9.486,1.854,19.069c.155,2.962.348,6.066-.444,8.961-.64,2.34-2.864,5.355-5.673,4.046.108.189.217.378.327.568a161.62,161.62,0,0,0-.043-31.822c-.083-.834-1.4-.845-1.316,0" transform="translate(-200.645 -181.347)" fill="#fff"/>
              <path id="Path_3805" data-name="Path 3805" d="M258.709,211.543q-.341,13-1.767,25.961-.41,3.711-.91,7.414c-.084.628,1.233.635,1.318.01Q259.09,232,259.743,219q.186-3.721.282-7.444c.017-.631-1.3-.642-1.316-.01" transform="translate(-201.66 -168.399)" fill="#fff"/>
              <path id="Path_3806" data-name="Path 3806" d="M229.533,199.808c-1.27,8.973-2.584,17.939-3.8,26.919a112.059,112.059,0,0,0-.87,26.516c.895,8.8,2.434,17.547,3.692,26.3q1.966,13.684,3.755,27.394,3.5,26.927,6.174,53.955,2.627,27.022,4.182,54.132c.485,8.706.478,17.528,1.634,26.181a54.664,54.664,0,0,0,2.942,12.033c1.459,3.884,3.286,7.616,4.832,11.464a57.629,57.629,0,0,1,1.994,5.749.659.659,0,0,0,1.27-.351c-2.26-7.942-6.723-15.066-8.653-23.119-2.018-8.416-1.94-17.218-2.376-25.814q-1.365-26.981-3.9-53.884-2.485-26.772-5.9-53.446c-2.233-17.657-4.841-35.254-7.363-52.869a111.277,111.277,0,0,1-.97-26.988c.9-9.076,2.4-18.106,3.675-27.136q.472-3.344.946-6.688c.117-.827-1.151-1.185-1.27-.349" transform="translate(-224.424 -176.857)" fill="#fff"/>
              <path id="Path_3807" data-name="Path 3807" d="M303.244,460.91q-5.726-50.687-11.45-101.374c-1.889-16.728-4.077-33.458-5.355-50.253S285,275.6,284.5,258.762q-.841-28.769-1.681-57.54a.624.624,0,1,0-1.249,0q.748,25.66,1.5,51.319c.492,16.857.714,33.752,1.7,50.586.987,16.805,3.184,33.525,5.071,50.241l5.692,50.4q3.228,28.573,6.454,57.146c.093.819,1.345.829,1.251,0" transform="translate(-183.26 -175.946)" fill="#fff"/>
            </g>
          </g>
        </g>
        <path id="Path_3808" data-name="Path 3808" d="M310.777,146.314c-.987-2.778-2.744-5.427-2.608-8.373a16.709,16.709,0,0,1,1.485-5.08c2.119-5.52,2.727-12.123-.518-17.067-1.641-2.5-4.142-4.383-5.551-7.02-1.574-2.949-1.591-6.451-2.4-9.694a20.138,20.138,0,0,0-8.522-11.9,19.641,19.641,0,0,0-3.955-1.935,14.169,14.169,0,0,0-.04-12.078,17.872,17.872,0,0,0-11.7-9.181,25.579,25.579,0,0,0-15.082,1.1,24.657,24.657,0,0,0-11.294,7.994A16.608,16.608,0,0,0,247.352,86.3a13.186,13.186,0,0,0,2.728,5.546c-4.247,3.535-7.683,7.994-8.421,13.365-.473,3.43.2,6.989-.652,10.344-1.581,6.205-7.791,9.976-11.189,15.4-4.93,7.877-3.041,18.918,3.294,25.716s16.27,9.546,25.5,8.464c3.391-.4,6.719-1.261,10.122-1.524,10.655-.824,21.359,4.256,31.834,2.137a14.518,14.518,0,0,0,6.621-2.961,12.825,12.825,0,0,0,3.678-5.7,16.641,16.641,0,0,0-.091-10.778" transform="translate(163.519 45.601)" fill="#6e2501"/>
        <path id="Path_3809" data-name="Path 3809" d="M305.524,139.984c-12.467-2.329-17.93-9.219-17.93-9.219a31.941,31.941,0,0,1-.607-21.442c-7.648-.413-15.243-.428-22.905-.862a9.578,9.578,0,0,1-2.173-.378,31.716,31.716,0,0,1-.155,22.682s-5.464,6.89-17.93,9.219-17.9,7.779-17.851,14.275c.04,5.137,34.356,5.049,48.7,4.788,14.345.261,48.663.349,48.7-4.788.05-6.5-5.383-11.946-17.85-14.275" transform="translate(162.762 77.85)" fill="#ff9670"/>
        <path id="Path_3810" data-name="Path 3810" d="M248.879,114.84c1.741,2.739,9,5.352,12.054,5.694,3.872.433,7.855-.378,9.506-3.346-.342-5.4.764-5.653,1.5-7.865-7.648-.413-15.245-.428-22.906-.862a9.483,9.483,0,0,1-2.173-.378,28.364,28.364,0,0,1,1.555,5.741c.473.471.062.387.463,1.017" transform="translate(177.808 77.85)" fill="#fc7f51"/>
        <path id="Path_3811" data-name="Path 3811" d="M246.661,99.531a9.458,9.458,0,0,0-2.591-2.6,4.37,4.37,0,0,0-3.532-.58,4.094,4.094,0,0,0-2.46,2.393,6.581,6.581,0,0,0-.313,3.487,6.773,6.773,0,0,0,3.339,5.085,4.326,4.326,0,0,0,5.565-1.371,6.4,6.4,0,0,0,.423-4.086" transform="translate(171.186 69.285)" fill="#ff9670"/>
        <path id="Path_3812" data-name="Path 3812" d="M243.128,99.114a3.348,3.348,0,0,0-.919-.922,1.556,1.556,0,0,0-1.254-.206,1.456,1.456,0,0,0-.874.85,2.342,2.342,0,0,0-.11,1.237,2.4,2.4,0,0,0,1.185,1.8,1.534,1.534,0,0,0,1.975-.487,2.272,2.272,0,0,0,.15-1.448" transform="translate(172.821 70.536)" fill="#fc7f51"/>
        <path id="Path_3813" data-name="Path 3813" d="M264.766,99.111a9.458,9.458,0,0,1,2.591-2.6,4.37,4.37,0,0,1,3.532-.58,4.094,4.094,0,0,1,2.46,2.393,6.582,6.582,0,0,1,.313,3.487,6.773,6.773,0,0,1-3.339,5.085,4.327,4.327,0,0,1-5.565-1.371,6.4,6.4,0,0,1-.423-4.086" transform="translate(190.297 68.982)" fill="#ff9670"/>
        <path id="Path_3814" data-name="Path 3814" d="M265.716,98.694a3.349,3.349,0,0,1,.919-.922,1.556,1.556,0,0,1,1.254-.206,1.449,1.449,0,0,1,.872.85,2.325,2.325,0,0,1,.112,1.237,2.4,2.4,0,0,1-1.185,1.8,1.535,1.535,0,0,1-1.975-.487,2.272,2.272,0,0,1-.15-1.448" transform="translate(191.245 70.234)" fill="#fc7f51"/>
        <path id="Path_3815" data-name="Path 3815" d="M242.276,92.243a56.785,56.785,0,0,0,2.014,30.342,27.952,27.952,0,0,0,4.249,8.209A26.471,26.471,0,0,0,256.133,137a19.324,19.324,0,0,0,5.66,2.371,14.476,14.476,0,0,0,11.342-2.773,21.138,21.138,0,0,0,7.082-8.426,35.459,35.459,0,0,0,3.01-9.477,66.169,66.169,0,0,0,1.213-14.2,50.958,50.958,0,0,0-1-7.712c-.991-5.348-2.374-11.149-6.685-14.468-4.629-3.564-11.189-3.1-16.821-1.552" transform="translate(173.651 57.335)" fill="#ff9670"/>
        <path id="Path_3816" data-name="Path 3816" d="M242.812,102.572c-.22,2.159,1.968,4.149,4.887,4.447s5.465-1.209,5.686-3.368S251.417,99.5,248.5,99.2s-5.465,1.211-5.685,3.368" transform="translate(174.881 71.427)" fill="#fc7f51"/>
        <path id="Path_3817" data-name="Path 3817" d="M268.788,102.394c.523,2.106-1.364,4.385-4.211,5.092s-5.582-.428-6.1-2.534,1.362-4.385,4.211-5.092,5.581.428,6.1,2.534" transform="translate(186.11 71.776)" fill="#fc7f51"/>
        <path id="Path_3818" data-name="Path 3818" d="M252.346,92.767c-3.207.038-7.282.4-8.841,2.321-.774.955-1.787.814-1.087-.213,2.174-3.181,5.336-3.673,9.99-4.089a.974.974,0,0,1,.932,1.065c-.016.482-.477,1.025-.994.917" transform="translate(174.439 65.389)" fill="#6e2501"/>
        <path id="Path_3819" data-name="Path 3819" d="M245.936,97.493a2.181,2.181,0,1,0,1.584-2.985,2.413,2.413,0,0,0-1.584,2.985" transform="translate(177.097 68.048)" fill="#2d0e0b"/>
        <path id="Path_3820" data-name="Path 3820" d="M259.188,92.767c3.2.038,7.28.4,8.837,2.321.776.955,1.789.814,1.091-.213-2.176-3.181-5.338-3.673-9.991-4.089a.972.972,0,0,0-.931,1.065c.015.482.475,1.025.994.917" transform="translate(185.97 65.389)" fill="#6e2501"/>
        <path id="Path_3821" data-name="Path 3821" d="M262.731,97.493a2.181,2.181,0,1,1-1.584-2.985,2.412,2.412,0,0,1,1.584,2.985" transform="translate(186.177 68.048)" fill="#2d0e0b"/>
        <path id="Path_3822" data-name="Path 3822" d="M254.9,104.822a6.636,6.636,0,0,0,2.221-1.022,8.281,8.281,0,0,1-3.09-7.562c.036-.408.146-1.094.64-1.111.422-.012.234,1.067.231,1.479-.026,3.718,1.512,4.851,4.12,6.671a.705.705,0,0,1,.033,1.07,8.252,8.252,0,0,1-3.657,1.918c-1.056.253-1.555-1.19-.5-1.443" transform="translate(182.942 68.517)" fill="#f46e45"/>
        <path id="Path_3823" data-name="Path 3823" d="M262.375,105.363a72.6,72.6,0,0,0-11.493,1.116s7.514,5.226,11.493-1.116" transform="translate(180.705 75.891)" fill="#e53e3e"/>
        <path id="Path_3824" data-name="Path 3824" d="M264.43,75.708c-7.531-.986-15.133,3.222-19.539,9.408s-5.964,14.032-5.833,21.626a.82.82,0,0,0,.107.473c.2.286.643.2.972.079,3.779-1.374,7.371-3.274,11.244-4.361A28.275,28.275,0,0,1,261.538,102a2.131,2.131,0,0,0,1.739-.335,2.04,2.04,0,0,0,.44-1.137q.854-5.184,1.593-10.384a19.777,19.777,0,0,1,3.172,11.512,1.406,1.406,0,0,0,.325,1.209,1.336,1.336,0,0,0,.786.2q1.966.077,3.934.153a1.722,1.722,0,0,0,2.224-2q.1-2.707.194-5.412a22.254,22.254,0,0,1,4.579,8.471l7.979,2.937a1.8,1.8,0,0,0,.666.153c.748-.024,1.135-.895,1.3-1.626,1.142-5.132-.091-10.55-2.3-15.321-3.48-7.511-9.892-14.113-18-15.772" transform="translate(172.182 53.765)" fill="#6e2501"/>
        <path id="Path_3825" data-name="Path 3825" d="M257.017,75.408A37.889,37.889,0,0,0,245.092,93.67a.618.618,0,0,0,1.19.329,36.748,36.748,0,0,1,11.608-17.717c.611-.513-.268-1.383-.874-.874" transform="translate(176.514 54.203)" fill="#561c02"/>
        <path id="Path_3826" data-name="Path 3826" d="M255.081,76.217a43.565,43.565,0,0,0-4.6,11.918c-.174.776,1.018,1.106,1.192.33a42.336,42.336,0,0,1,4.473-11.624.619.619,0,0,0-1.068-.624" transform="translate(180.406 54.68)" fill="#561c02"/>
        <path id="Path_3827" data-name="Path 3827" d="M255.692,77.105a22.736,22.736,0,0,1,6.391,11.137c.184.772,1.376.446,1.192-.329a23.925,23.925,0,0,0-6.709-11.682c-.575-.55-1.45.323-.874.874" transform="translate(184.033 54.782)" fill="#561c02"/>
        <path id="Path_3828" data-name="Path 3828" d="M258.431,77.307a22.248,22.248,0,0,1,12.3,18.45c.045.79,1.282.8,1.237,0a23.492,23.492,0,0,0-12.914-19.518c-.712-.347-1.34.719-.624,1.068" transform="translate(185.915 54.864)" fill="#561c02"/>
        <path id="Path_3829" data-name="Path 3829" d="M245.454,84.914c-.633-2.543-1.11-5.374-.1-7.891.793-1.98,2.8-3.783,5.037-3.635,1.149.077,2.2.7,3.379.528a3.222,3.222,0,0,0,2.109-1.337c1.178-1.559,1.505-3.5,3.1-4.767a6.583,6.583,0,0,1,6.468-.987c.74.292,1.061-.9.329-1.192a7.7,7.7,0,0,0-6.14.32,7.459,7.459,0,0,0-2.555,2.014,14.01,14.01,0,0,0-1.514,2.72c-.456.922-1.044,2-2.211,2.03-1.276.026-2.422-.681-3.733-.542a6.817,6.817,0,0,0-5.166,3.853c-1.418,2.871-.934,6.227-.191,9.214a.619.619,0,0,0,1.192-.329" transform="translate(175.419 46.918)" fill="#561c02"/>
        <path id="Path_3830" data-name="Path 3830" d="M256.205,70.794a5.183,5.183,0,0,1,4.722.332,6.981,6.981,0,0,1,2.907,3.583c.279.738,1.474.418,1.192-.329a8.3,8.3,0,0,0-3.59-4.388,6.461,6.461,0,0,0-5.856-.265c-.721.334-.093,1.4.624,1.067" transform="translate(183.859 49.807)" fill="#561c02"/>
        <path id="Path_3831" data-name="Path 3831" d="M266.553,89.682a17.869,17.869,0,0,1,5.665,16.58c-.712,3.611-2.876,6.847-2.95,10.6a8.1,8.1,0,0,0,1.35,4.664c.888,1.359,2.033,2.529,2.9,3.9a16.086,16.086,0,0,1,2.252,11.24c-.131.778,1.058,1.111,1.192.329a17.49,17.49,0,0,0-1.189-9.945,19.555,19.555,0,0,0-2.771-4.394,9.33,9.33,0,0,1-2.467-4.827c-.394-3.917,2.087-7.4,2.85-11.125a19.088,19.088,0,0,0-5.962-17.894c-.6-.525-1.474.347-.874.874" transform="translate(191.847 63.85)" fill="#561c02"/>
        <path id="Path_3832" data-name="Path 3832" d="M245.607,87.8a20.086,20.086,0,0,0-4.975,7.38c-1.216,3.136-1.354,6.432-1.5,9.752a29.485,29.485,0,0,1-.571,5.2,19.885,19.885,0,0,1-1.844,4.72c-1.495,2.89-3.078,5.661-3.671,8.906a20.173,20.173,0,0,0,1.051,10.994c.287.731,1.483.413,1.192-.329a19.037,19.037,0,0,1-1.166-9.616c.456-3.241,1.91-6.005,3.415-8.859a26.313,26.313,0,0,0,1.844-4.137,21.088,21.088,0,0,0,.87-4.884c.256-3.272.107-6.592,1.022-9.778a18.757,18.757,0,0,1,5.209-8.476c.581-.545-.294-1.418-.874-.874" transform="translate(167.617 63.12)" fill="#561c02"/>
        <path id="Path_3833" data-name="Path 3833" d="M242.585,119.387c-2.608-3.592-2.2-8.171-.807-12.155.263-.752-.931-1.075-1.192-.329-1.488,4.266-1.856,9.269.932,13.109.463.636,1.534.021,1.067-.624" transform="translate(172.464 76.695)" fill="#561c02"/>
        <path id="Path_3834" data-name="Path 3834" d="M233.871,133.976s41.782,11.966,83.8-6.415c0,0,7.755.408,11.627,6.515s19.26,34.328,19.26,34.328L323.709,184.15s-1.959,17.423-3.63,27.552c0,0-54.313,7.036-74.227,0,0,0-3.785-23.194-4.142-28.066l-23.967-8.2s10.067-35.3,16.128-41.464" transform="translate(156.835 91.879)" fill="#fe6705"/>
        <path id="Path_3835" data-name="Path 3835" d="M322.537,135.662c1.877,11.777-4.416,20.377-9.284,31.326-5.52,12.417-7.368,22.979-21.041,28.785-12.24,5.2-27.87,8.041-41.078,7.97-8.183-.045-13.927-2.7-17.963-7.721.845,5.4,1.569,9.843,1.569,9.843,19.916,7.036,74.227,0,74.227,0,1.672-10.129,3.632-27.552,3.632-27.552l24.851-15.746s-8.945-16.406-14.911-26.907" transform="translate(167.947 97.714)" fill="#e55607"/>
        <path id="Path_3836" data-name="Path 3836" d="M235.23,143.815c6.131-5.715,14.443-7.167,22.5-7.607,6.632-.361,13.169-.817,19.69-1.572-25.207,2.068-44.163-3.346-44.163-3.346-4.652,4.731-11.66,26.616-14.669,36.539,4.851-8.345,9.837-17.671,16.64-24.013" transform="translate(157.445 94.565)" fill="#e55607"/>
        <path id="Path_3837" data-name="Path 3837" d="M279.656,148.028c.062-2.742-2.216-5.051-4.751-6.415s-4.046-1.98-6.554-3.387-5.992-5.08-5.768-7.815a14.79,14.79,0,0,1,.975-4.192c1.02-2.142,1.392-3.367,2.412-5.508.482-1.013,3.289-3.723,3.473-4.813.418-2.486-1.129-2.854-2.29-5.106-1.27-2.462-3.816-4.167-5.085-6.627a1.721,1.721,0,0,1-.275-1.3c.347-1.01,1.961-.721,2.943-.2A69.873,69.873,0,0,1,274.665,109c3.47,2.653,6.713,5.686,8.749,9.417,1.436,2.634,2.226,5.532,3.351,8.3,2.006,4.935,3.129,10.664,5.832,15.295,4.913,8.417,10.325,22.455,14.072,31.39,2.083,4.972,3.828,7.59,4.948,12.835.819,3.829,2.828,10.167,3.093,14.07.416,6.136.637,7.774-.735,12.95-.913,3.449-2.568,5.572-6.379,5.858-2.873.215-7.629-4.354-9.336-6.494-7.091-8.9-9.384-15.845-12.123-26.666a307.225,307.225,0,0,1-6.482-37.925" transform="translate(188.528 73.604)" fill="#ff9670"/>
        <path id="Path_3838" data-name="Path 3838" d="M265.066,105.481c2.34,4.466,8.292,6.057,12.271,8.8a42.169,42.169,0,0,1,6.32,5.288c-.182-.387-.351-.779-.557-1.158-2.035-3.73-5.28-6.762-8.748-9.417a70.278,70.278,0,0,0-9.929-6.341,3.458,3.458,0,0,0-2.243-.4,8.2,8.2,0,0,1,2.887,3.226" transform="translate(188.842 73.608)" fill="#fc7f51"/>
        <path id="Path_3839" data-name="Path 3839" d="M296.761,184.913c-8.022-4.275-11.292-13.392-14.074-21.426-3.4-9.819-5.723-20.268-9.941-29.8a292.3,292.3,0,0,0,5.469,29.582c2.737,10.821,5.03,17.769,12.121,26.666,1.707,2.14,6.463,6.709,9.336,6.494,3.81-.286,5.465-2.408,6.379-5.858a29.78,29.78,0,0,0,.956-4.892,11.809,11.809,0,0,1-10.246-.764" transform="translate(196.453 96.29)" fill="#fc7f51"/>
      </g>
    </g>
  </g>
</svg>
